<svg width="24" height="24" viewBox="0 0 24 24" xmlns="http://www.w3.org/2000/svg">
    <g fill="#000" fill-rule="evenodd">
        <path d="M14.725 17.753h1.816V9.88h-1.816zM7.458 17.753h1.817V9.88H7.458z"/>
        <path d="M18.358 6.247v13.625a.303.303 0 0 1-.303.303H5.944a.303.303 0 0 1-.303-.303V6.247h12.717zM10.485 4.43h3.028v-.605h-3.028v.605zm10.598 0H15.33V2.916c0-.5-.408-.908-.908-.908H9.577c-.5 0-.908.407-.908.908V4.43H2.916a.91.91 0 0 0 0 1.817h.908v14.23c0 .835.68 1.515 1.514 1.515h13.323c.835 0 1.514-.68 1.514-1.514V6.247h.908a.91.91 0 0 0 0-1.817z"/>
        <path d="M11.091 17.753h1.817V8.669h-1.817z"/>
    </g>
</svg>
