<svg xmlns="http://www.w3.org/2000/svg" width="26" height="25" viewBox="0 0 26 25">
    <g fill="none" fill-rule="evenodd">
        <g fill="#000">
            <g>
                <g>
                    <path d="M11.99 9.148c.335-.32.86-.348 1.23-.087l.106.087 5.792 5.516c.369.351.369.92 0 1.272-.336.32-.86.349-1.23.088l-.107-.088-5.123-4.88-5.123 4.88c-.335.32-.86.349-1.23.088l-.106-.088c-.336-.32-.366-.82-.092-1.171l.092-.101 5.791-5.516z" transform="translate(-294.000000, -1281.000000) translate(16.000000, 1256.000000) translate(290.600000, 37.084567) scale(1, -1) translate(-290.600000, -37.084567) translate(278.000000, 25.084567)"/>
                </g>
            </g>
        </g>
    </g>
</svg>
