<svg width="108" height="108" viewBox="0 0 108 108" xmlns="http://www.w3.org/2000/svg">
    <g fill="none" fill-rule="evenodd">
        <circle stroke="#CDCED3" fill="#FFF" cx="54" cy="54" r="53.5"/>
        <path d="M44.914 24.29a1.118 1.118 0 0 1 1.521.017c.563.534 9.237 8.847 15.23 18.725h-2.643c-4.856-7.603-11.194-14.197-13.36-16.361l-.238.239C41.28 31.058 25.78 47.442 26.237 59.85l.016.349c.562 10.443 9.025 18.573 19.413 18.575 5.606 0 10.636-2.384 14.18-6.206.048.194.084.39.155.583.215.585.492 1.133.8 1.658A21.493 21.493 0 0 1 45.666 81c-11.708-.001-21.218-9.256-21.655-21.067-.564-15.316 20.688-35.447 20.903-35.643zm24.952 38.713c3.579 0 6.49 2.909 6.49 6.486s-2.911 6.486-6.49 6.486a6.519 6.519 0 0 1-6.09-4.237 1.116 1.116 0 0 1 2.09-.772 4.28 4.28 0 0 0 4 2.783 4.266 4.266 0 0 0 4.262-4.26c0-2.35-1.911-4.26-4.262-4.26h-26.45a1.114 1.114 0 0 1 0-2.226h26.45zm15.906-7.762c3.986 0 7.228 3.24 7.228 7.222 0 3.984-3.242 7.224-7.228 7.224a7.25 7.25 0 0 1-6.96-5.272 1.116 1.116 0 0 1 .772-1.373 1.117 1.117 0 0 1 1.374.771 5.014 5.014 0 0 0 4.814 3.647c2.757 0 5-2.24 5-4.997a5.004 5.004 0 0 0-5-4.996H43.385a1.113 1.113 0 1 1 0-2.226h42.387zM72.137 37.803a5.778 5.778 0 0 1 5.772 5.77c0 3.18-2.59 5.767-5.772 5.767H48.074a1.114 1.114 0 0 1 0-2.226h24.063a3.547 3.547 0 0 0 3.544-3.542 3.548 3.548 0 0 0-3.544-3.543c-1.478 0-2.815.93-3.325 2.316a1.113 1.113 0 1 1-2.09-.774 5.798 5.798 0 0 1 5.415-3.768zm-28.318 9.298a1.114 1.114 0 0 1 0 2.227h-.44a1.114 1.114 0 0 1 0-2.227h.44z" fill="#979797"/>
    </g>
</svg>
