<svg width="28" height="28" viewBox="0 0 28 28" xmlns="http://www.w3.org/2000/svg">
    <g fill="#1796E2" fill-rule="evenodd">
        <path d="M16.846 7.99a.75.75 0 1 1-1.5 0 .75.75 0 0 1 1.5 0M20.098 13.037a.75.75 0 1 1-1.5 0 .75.75 0 0 1 1.5 0M21.206 15.8a.75.75 0 1 1-1.5 0 .75.75 0 0 1 1.5 0M20.7 18.723a.75.75 0 1 1-1.5 0 .75.75 0 0 1 1.5 0M18.97 21.14a.75.75 0 1 1-1.5-.001.75.75 0 0 1 1.5 0M16.338 22.562a.75.75 0 1 1-1.5 0 .75.75 0 0 1 1.5 0M14.853 5.75a.75.75 0 1 1-1.5 0 .75.75 0 0 1 1.5 0M18.526 10.466a.75.75 0 1 1-1.5 0 .75.75 0 0 1 1.5 0M11.36 7.99a.75.75 0 1 0 1.5 0 .75.75 0 0 0-1.5 0M8.108 13.037a.75.75 0 1 0 1.5 0 .75.75 0 0 0-1.5 0M7 15.8a.75.75 0 1 0 1.5 0 .75.75 0 0 0-1.5 0M7.506 18.723a.75.75 0 1 0 1.501 0 .75.75 0 0 0-1.5 0M9.237 21.14a.75.75 0 1 0 1.5-.001.75.75 0 0 0-1.5 0M11.868 22.562a.75.75 0 1 0 1.5 0 .75.75 0 0 0-1.5 0M9.68 10.466a.75.75 0 1 0 1.5 0 .75.75 0 0 0-1.5 0"/>
    </g>
</svg>
