<svg xmlns="http://www.w3.org/2000/svg" width="30" height="36" viewBox="0 0 30 36">
    <g fill="none" fill-rule="evenodd">
        <g>
            <g>
                <g transform="translate(-40.000000, -154.000000) translate(16.000000, 138.000000) translate(24.000000, 16.000000)">
                    <path fill="#FFF" d="M17.088.944l9.381 4.105c1.7.744 2.768 2.457 2.685 4.31l-.407 9.16c-.222 4.988-2.868 9.552-7.086 12.224L17.07 33.65c-1.307.828-2.974.828-4.28 0l-4.593-2.908C3.98 28.07 1.333 23.507 1.112 18.518L.704 9.36C.622 7.506 1.69 5.793 3.39 5.049L12.771.944c1.376-.602 2.94-.602 4.317 0zM14.04 3.337l-.19.074-9.382 4.105c-.634.278-1.048.893-1.074 1.577v.147l.408 9.159c.177 3.991 2.239 7.653 5.541 9.876l.295.193 4.592 2.908c.384.243.864.268 1.267.073l.132-.073 4.592-2.908c3.375-2.138 5.528-5.747 5.815-9.718l.021-.351.407-9.159c.03-.692-.339-1.335-.941-1.66l-.133-.064L16.01 3.41c-.626-.273-1.33-.298-1.97-.074z"/>
                    <circle cx="17.25" cy="15" r="5" stroke="#FFF" stroke-width="2"/>
                    <path stroke="#FFF" stroke-linecap="round" stroke-width="1.5" d="M17.25 13c-1.105 0-2 .895-2 2"/>
                    <circle cx="12" cy="23" r="2" stroke="#FFF" stroke-width="2"/>
                </g>
            </g>
        </g>
    </g>
</svg>
