<svg xmlns="http://www.w3.org/2000/svg" width="24" height="24" viewBox="0 0 24 24">
    <g fill="none" fill-rule="evenodd">
        <g fill="#000" fill-rule="nonzero">
            <g>
                <g>
                    <g>
                        <path d="M14.5 2v.002l.053.004c.078.013.151.043.215.09l.06.05 4.7 4.711c.075.075.123.171.14.275l.004.062h.004v1h-.003v1.62h-1l-.001-1.62H15c-.78 0-1.42-.595-1.493-1.355l-.007-.145V3H5c-.245 0-.45.177-.492.41L4.5 3.5v17c0 .245.177.45.41.492L5 21h13.191c.246 0 .45-.177.492-.41l.008-.09v-1.012h1V20.5c0 .78-.595 1.42-1.355 1.493L18.19 22H5c-.78 0-1.42-.595-1.493-1.356L3.5 20.5v-17c0-.78.595-1.42 1.356-1.493L5 2h9.5zm-4.791 9.8l.208.006c.34.022.645.098.914.227.323.156.57.377.745.663.173.287.26.613.26.978 0 .555-.19.993-.57 1.313-.38.32-.905.48-1.577.48H8.667v1.995H7.5V11.8h2.209zm4.67 0l.21.007c.414.027.79.137 1.126.33.393.224.7.543.92.956.22.414.33.883.33 1.41v.26l-.006.222c-.027.437-.133.831-.318 1.182-.217.41-.522.727-.916.953-.394.226-.839.34-1.334.342h-1.754V11.8h1.742zm7.121 0v.945h-2.52v1.462h2.24v.941h-2.24v2.314h-1.167V11.8H21.5zm-7.12.945h-.576v3.78h.564c.456 0 .805-.15 1.046-.447.241-.298.364-.725.37-1.28v-.3l-.006-.208c-.026-.474-.144-.84-.352-1.1-.239-.297-.588-.445-1.047-.445zm-4.644 0h-1.07v1.777H9.71c.308 0 .544-.072.706-.218.162-.145.243-.352.243-.622 0-.277-.082-.501-.245-.673-.164-.17-.39-.259-.677-.264zm4.764-9.51v3.46c0 .245.177.449.41.491l.09.008h3.45L14.5 3.235z" transform="translate(-32.000000, -480.000000) translate(0.000000, 456.000000) translate(32.000000, 16.000000) translate(0.000000, 8.000000)"/>
                    </g>
                </g>
            </g>
        </g>
    </g>
</svg>
