<svg width="72" height="72" viewBox="0 0 72 72" xmlns="http://www.w3.org/2000/svg">
    <g fill="none" fill-rule="evenodd">
        <circle fill="#1796E2" opacity=".5" cx="36" cy="36" r="36"/>
        <path d="M36.375 19.875c0-.967 1.138-1.483 1.866-.847l9 7.875a1.125 1.125 0 0 1 0 1.694l-8.034 7.028 8.034 7.028c.478.419.51 1.14.095 1.6l-.095.094-9 7.875c-.728.636-1.866.12-1.866-.847l.001-13.39-.571.493-1.201 1.048a645.345 645.345 0 0 0-5.014 4.462l-4.272 3.85a1.125 1.125 0 0 1-1.51-1.67c3.14-2.838 5.709-5.143 7.708-6.917l2.43-2.138c.74-.646 1.338-1.157 1.794-1.535L23.823 25.152a1.125 1.125 0 0 1 1.481-1.693l11.07 9.686zm2.25 18.228v10.793l6.167-5.396-6.167-5.397zm0-15.75v10.793l6.167-5.396-6.167-5.397z" fill="#FFF"/>
    </g>
</svg>
