<svg xmlns="http://www.w3.org/2000/svg" width="12" height="12" viewBox="0 0 12 12">
    <g fill="none" fill-rule="evenodd">
        <g fill="#52535A">
            <g>
                <g>
                    <g>
                        <path d="M11.372 6.338c.248.026.427.248.4.495-.305 2.883-2.746 5.092-5.667 5.092-1.664 0-3.207-.718-4.276-1.93V11.1c0 .224-.163.41-.376.444l-.073.006c-.224 0-.41-.163-.445-.377L.93 11.1V8.85c0-.224.163-.41.377-.444L1.38 8.4h2.25c.248 0 .45.201.45.45 0 .224-.164.41-.377.444L3.63 9.3H2.418c.902 1.081 2.24 1.725 3.687 1.725 2.46 0 4.515-1.86 4.773-4.287.026-.247.247-.426.494-.4zM5.895.075c1.664 0 3.207.718 4.276 1.93V.9c0-.224.163-.41.376-.444L10.62.45c.224 0 .41.163.445.377L11.07.9v2.25c0 .224-.163.41-.377.444l-.073.006H8.37c-.248 0-.45-.201-.45-.45 0-.224.164-.41.377-.444L8.37 2.7h1.212C8.68 1.62 7.342.975 5.895.975c-2.46 0-4.515 1.86-4.773 4.287-.026.247-.247.426-.494.4-.248-.026-.427-.248-.4-.495C.533 2.284 2.974.075 5.895.075z" transform="translate(-120 -278) translate(0 130) translate(104 138) translate(16 10)"/>
                    </g>
                </g>
            </g>
        </g>
    </g>
</svg>
