<svg xmlns="http://www.w3.org/2000/svg" width="30" height="36" viewBox="0 0 30 36">
    <g fill="none" fill-rule="evenodd">
        <g fill="#FFF">
            <g>
                <g>
                    <path d="M17.088.944l9.381 4.105c1.7.744 2.768 2.457 2.685 4.31l-.407 9.16c-.222 4.988-2.868 9.552-7.086 12.224L17.07 33.65c-1.307.828-2.974.828-4.28 0l-4.593-2.908C3.98 28.07 1.333 23.507 1.112 18.518L.704 9.36C.622 7.506 1.69 5.793 3.39 5.049L12.771.944c1.376-.602 2.94-.602 4.317 0zM14.04 3.337l-.19.074-9.382 4.105c-.634.278-1.048.893-1.074 1.577v.147l.408 9.159c.177 3.991 2.239 7.653 5.541 9.876l.295.193 4.592 2.908c.384.243.864.268 1.267.073l.132-.073 4.592-2.908c3.375-2.138 5.528-5.747 5.815-9.718l.021-.351.407-9.159c.03-.692-.339-1.335-.941-1.66l-.133-.064L16.01 3.41c-.626-.273-1.33-.298-1.97-.074zm-.674 12.69c.467 0 .852.351.905.804l.006.106v2.98c0 2.478-1 3.594-2.98 3.594-1.924 0-2.95-1.043-3.017-3.35l-.003-.244v-2.95c0-.52.421-.94.94-.94.483 0 .88.363.935.83l.006.11v2.95c0 1.392.319 1.824 1.139 1.824.771 0 1.124-.392 1.156-1.632l.003-.192v-2.98c0-.503.407-.91.91-.91zm2.37.02c.449-.148.93.065 1.127.481l.044.108.825 2.491.234.726.447 1.406h.058l.531-1.755.116-.377.727-2.463c.146-.462.614-.734 1.078-.644l.12.03c.462.154.728.628.632 1.093l-.029.107-1.607 4.855c-.235.712-.9 1.192-1.65 1.192-.699 0-1.324-.42-1.594-1.054l-.052-.14-1.598-4.887c-.16-.486.105-1.01.591-1.17zm4.701-6.182c.365.211.49.678.28 1.043l-1.033 1.787c-.21.365-.677.49-1.042.28-.365-.211-.49-.678-.28-1.043l1.033-1.787c.21-.365.677-.49 1.042-.28zm-11.13 0c.334-.193.754-.104.984.193l.058.087 1.032 1.787c.211.365.086.832-.279 1.043-.334.193-.754.104-.984-.193l-.058-.087-1.032-1.787c-.211-.365-.086-.832.279-1.043zm5.565-1.138c.421 0 .763.342.763.763v2.065c0 .421-.342.763-.763.763s-.763-.342-.763-.763V9.49c0-.421.342-.763.763-.763z" transform="translate(-40.000000, -154.000000) translate(16.000000, 138.000000) translate(24.000000, 16.000000)"/>
                </g>
            </g>
        </g>
    </g>
</svg>
