<svg width="24" height="24" viewBox="0 0 24 24" xmlns="http://www.w3.org/2000/svg" xmlns:xlink="http://www.w3.org/1999/xlink">
    <defs>
        <path id="r69icq3wta" d="M0 0h18.816v18.816H0z"/>
    </defs>
    <g fill="none" fill-rule="evenodd">
        <path d="M6.706 16.604a.448.448 0 0 1-.44-.536 4.485 4.485 0 0 1 2.874-3.324 3.811 3.811 0 0 1-.948-2.51v-.672c0-2.1 1.709-3.808 3.808-3.808 2.1 0 3.808 1.708 3.808 3.808v.672c0 .916-.333 1.793-.919 2.476.429.126.823.303 1.177.529a.448.448 0 0 1-.481.755c-.475-.302-1.046-.497-1.696-.578a.448.448 0 0 1-.205-.81 2.918 2.918 0 0 0 1.228-2.372v-.672A2.915 2.915 0 0 0 12 6.65a2.915 2.915 0 0 0-2.912 2.912v.672c0 .939.459 1.826 1.228 2.373a.45.45 0 0 1-.193.808 3.586 3.586 0 0 0-2.978 2.829.448.448 0 0 1-.439.36" fill="#8E8E93"/>
        <g transform="translate(2.592 2.592)">
            <mask id="d00tym1khb" fill="#fff">
                <use xlink:href="#r69icq3wta"/>
            </mask>
            <path d="M15.019 17.66a2.66 2.66 0 0 1-2.688-2.687 2.69 2.69 0 0 1 2.688-2.688 2.66 2.66 0 0 1 2.688 2.688c0 1.557-1.13 2.688-2.688 2.688M.896 9.408C.896 4.714 4.715.896 9.408.896c4.773 0 8.512 3.739 8.512 8.512 0 1.02-.164 1.995-.474 2.912a3.571 3.571 0 0 0-2.427-.931 3.588 3.588 0 0 0-3.584 3.584c0 .958.36 1.814.952 2.45a9.03 9.03 0 0 1-2.979.497c-4.773 0-8.512-3.739-8.512-8.512m17.92 0C18.816 4.132 14.684 0 9.408 0 4.22 0 0 4.22 0 9.408c0 5.275 4.132 9.408 9.408 9.408a9.832 9.832 0 0 0 3.796-.741c.53.305 1.147.482 1.815.482 2.043 0 3.584-1.541 3.584-3.584 0-.682-.185-1.31-.502-1.847a9.842 9.842 0 0 0 .715-3.718" fill="#8E8E93" mask="url(#d00tym1khb)"/>
        </g>
        <path d="M17.89 18.668h-.542a.045.045 0 0 0-.045.045v.596c0 .025.02.045.045.045h.542c.025 0 .045-.02.045-.045v-.596a.045.045 0 0 0-.045-.045M18.369 16.074a1.041 1.041 0 0 0-.757-.298c-.297 0-.547.1-.745.296-.196.196-.303.45-.318.755 0 .023.016.043.038.046l.498.075c.026.006.046-.012.05-.036.064-.365.226-.543.494-.543a.408.408 0 0 1 .423.424.404.404 0 0 1-.046.198c-.023.04-.093.132-.3.338a1.405 1.405 0 0 0-.321.43c-.056.13-.084.301-.084.51l.002.15c0 .025.02.044.045.044h.493a.045.045 0 0 0 .045-.046c-.004-.174.007-.296.033-.361a.916.916 0 0 1 .203-.265c.228-.23.373-.408.443-.542a.928.928 0 0 0 .107-.432c0-.295-.102-.545-.303-.743" fill="#8E8E93"/>
    </g>
</svg>
