<svg xmlns="http://www.w3.org/2000/svg" xmlns:xlink="http://www.w3.org/1999/xlink" width="24" height="24" viewBox="0 0 24 24">
    <defs>
        <path id="ehiwp7sxea" d="M5 8.843l.001.088.005.15.009.162.041.431.005.03.054.35c.085.462.217.913.394 1.346.056.139.122.282.194.427l.133.259.055.098.195.309.154.228.087.123.041.062.112.141.331.405.341.429.291.384.144.2c.637.907.806 1.466.806 2.338v2.257l.006.142c.069.749.673 1.347 1.435 1.427.304.802 1.093 1.372 2.019 1.372.922 0 1.709-.566 2.016-1.362h.121l.148-.007c.822-.072 1.468-.749 1.468-1.572v-2.214l.003-.192c.032-.938.318-1.579 1.223-2.75l.348-.441.413-.506.207-.293.234-.356.116-.194.196-.388.086-.186.019-.043.019-.044c.272-.64.442-1.335.501-2.056.012-.122.019-.237.024-.339L19 8.843l-.004-.236C18.869 4.938 15.786 2 12 2 8.135 2 5 5.065 5 8.843zm3.025 4.422l-.364-.458-.409-.503-.044-.066-.145-.207-.193-.297-.074-.124-.018-.036-.103-.2c-.064-.128-.118-.248-.165-.364-.189-.46-.317-.942-.381-1.441l-.027-.245-.012-.15-.012-.259-.002-.077.005-.217C6.198 5.529 8.803 3.053 12 3.053l.239.006.229.012c2.974.227 5.332 2.602 5.451 5.539l.003.302-.013.279-.005.058-.005.059c-.052.617-.196 1.204-.427 1.747l-.063.143-.205.412-.157.254-.138.208-.161.232-.21.257-.201.247c-1.233 1.53-1.698 2.368-1.79 3.547H9.456c-.072-1.062-.437-1.808-1.431-3.09zm1.896 6.314c-.256-.04-.451-.257-.451-.519v-1.653h5.058l.001 1.653-.007.085c-.042.251-.264.441-.532.441h-3.982l-.087-.007zm1.17 1.06h1.525c-.196.191-.465.309-.763.309s-.567-.118-.762-.309zm.87-13.901c-.275 0-.499.224-.499.5v3.211c0 .275.224.499.499.499h.078c.275 0 .499-.224.499-.499V7.238c0-.276-.224-.5-.499-.5h-.078zm-.499 5.789c0 .291.241.526.538.526.297 0 .538-.235.538-.526 0-.29-.241-.526-.538-.526-.297 0-.538.236-.538.526z"/>
    </defs>
    <g fill="none" fill-rule="evenodd">
        <g>
            <g>
                <g>
                    <g transform="translate(-32.000000, -536.000000) translate(0.000000, 456.000000) translate(32.000000, 72.000000) translate(0.000000, 8.000000)">
                        <path d="M0 0H24V24H0z"/>
                        <use fill="#000" xlink:href="#ehiwp7sxea"/>
                    </g>
                </g>
            </g>
        </g>
    </g>
</svg>
