<svg width="32" height="32" viewBox="0 0 32 32" xmlns="http://www.w3.org/2000/svg">
    <g fill="none" fill-rule="evenodd">
        <circle fill="#1796E2" cx="16" cy="16" r="16"/>
        <path d="M19.6 7A2.4 2.4 0 0 1 22 9.4v13.2a2.4 2.4 0 0 1-2.4 2.4h-7.2a2.4 2.4 0 0 1-2.4-2.4V9.4A2.4 2.4 0 0 1 12.4 7h7.2zm1.2 14.4h-9.6v1.2a1.2 1.2 0 0 0 1.06 1.192l.14.008h7.2a1.2 1.2 0 0 0 1.192-1.06l.008-.14v-1.2zm-4.2.6a.6.6 0 0 1 0 1.2h-1.2a.6.6 0 0 1 0-1.2h1.2zm4.2-10.8h-9.6v9h9.6v-9zm-1.2-3h-7.2a1.2 1.2 0 0 0-1.192 1.06l-.008.14v.6h9.6v-.6a1.2 1.2 0 0 0-1.06-1.192L19.6 8.2z" fill="#FFF"/>
    </g>
</svg>
