<svg xmlns="http://www.w3.org/2000/svg" width="24" height="24" viewBox="0 0 24 24">
    <g fill="none" fill-rule="evenodd">
        <g fill="#000">
            <g>
                <g>
                    <g>
                        <path d="M19.5 9.375c.207 0 .375.168.375.375v9.375l-.002.066c-.034.59-.524 1.059-1.123 1.059H5.25l-.066-.002c-.59-.034-1.059-.524-1.059-1.123V9.75l.008-.076c.035-.17.186-.299.367-.299.207 0 .375.168.375.375h.003l-.001 2.66c.804-.586 1.822-.843 3.037-.774l.15.01c1.405.077 2.305.342 3.658.982l.562.272c1.453.711 2.283.97 3.653.993 1.434 0 2.494-.3 3.19-.885l-.002-3.258.008-.076c.035-.17.186-.299.367-.299zM4.877 13.352l-.002 5.773.003.044c.021.186.18.331.372.331h13.5l.044-.003c.186-.021.331-.18.331-.372l.002-5.234c-.8.492-1.867.734-3.196.734-1.432-.024-2.333-.288-3.763-.976l-.389-.19c-1.422-.696-2.264-.98-3.59-1.072l-.169-.01c-1.362-.105-2.401.222-3.143.975z" transform="translate(-28.000000, -189.000000) translate(0.000000, 80.000000) translate(24.000000, 105.000000) translate(4.000000, 4.000000)"/>
                        <path fill-rule="nonzero" d="M12 3.75c.192 0 .35.145.372.331l.003.044v6.219l1.61-1.61c.135-.134.348-.145.495-.03l.035.03c.135.136.146.349.031.496l-.03.035-2.25 2.25c-.136.135-.349.146-.496.031l-.035-.03-2.25-2.25c-.147-.147-.147-.385 0-.531.135-.135.348-.146.495-.031l.035.03 1.61 1.61V4.125c0-.207.168-.375.375-.375z" transform="translate(-28.000000, -189.000000) translate(0.000000, 80.000000) translate(24.000000, 105.000000) translate(4.000000, 4.000000)"/>
                    </g>
                </g>
            </g>
        </g>
    </g>
</svg>
