<svg width="24" height="24" viewBox="0 0 24 24" xmlns="http://www.w3.org/2000/svg">
    <g stroke="#1796e2" stroke-width="1.5" fill="none" fill-rule="evenodd">
        <path d="M12 2.8c2.91 0 5.31 2.195 5.63 5.02A1.916 1.916 0 0 1 19.084 10l-.02.12a2.848 2.848 0 0 1-1.672 2.143l-.043.572c-.033.43-.159.847-.368 1.224C15.522 16.686 13.862 18 12 18c-1.862 0-3.522-1.314-4.98-3.941a2.991 2.991 0 0 1-.368-1.224l-.05-.654a2.847 2.847 0 0 1-1.499-2.061l-.02-.12a1.917 1.917 0 0 1 1.281-2.133 5.668 5.668 0 0 1 5.2-5.05l.218-.013L12 2.8z"/>
        <path d="M15.5 16v2.573a2 2 0 0 0 1.553 1.95L23.5 22M8.5 16v2.573a2 2 0 0 1-1.553 1.95L.5 22"/>
    </g>
</svg>
