<svg width="28" height="28" viewBox="0 0 28 28" xmlns="http://www.w3.org/2000/svg">
    <g fill="none" fill-rule="evenodd">
        <circle fill="#cdced3" cx="14" cy="14" r="14"/>
        <path d="M14.146 7.73c0-.377.443-.578.725-.33l3.5 3.062c.2.175.2.485 0 .659l-3.124 2.733 3.124 2.733a.438.438 0 0 1 .06.596l-.06.063-3.5 3.062a.438.438 0 0 1-.725-.329l.001-5.208-.223.193-.467.407c-.51.449-1.16 1.027-1.95 1.735l-1.661 1.497a.438.438 0 1 1-.587-.649c1.22-1.103 2.22-2 2.997-2.69l.945-.831c.342-.298.605-.522.791-.674l-.094.076-4.634-4.053a.437.437 0 1 1 .576-.659l4.305 3.767zm.875 7.088v4.197l2.398-2.098-2.398-2.1zm0-6.125v4.197l2.398-2.098-2.398-2.1z" fill="#FFF"/>
    </g>
</svg>
