<svg xmlns="http://www.w3.org/2000/svg" width="32" height="32" viewBox="0 0 32 32">
    <g fill="none" fill-rule="evenodd">
        <g>
            <g>
                <g>
                    <g>
                        <g transform="translate(-82.000000, -325.000000) translate(16.000000, 138.000000) translate(8.000000, 175.000000) translate(58.000000, 12.000000) translate(1.600000, 4.000000)">
                            <path stroke="#1796E2" stroke-linejoin="round" stroke-width="1.5" d="M14.4 0c6.24 0 11.366 4.735 11.945 10.788.16.03.321.073.48.13 1.557.564 2.36 2.275 1.793 3.823-.49 1.339-1.843 2.117-3.207 1.939-1.846 4.227-6.081 7.183-11.011 7.183-4.93 0-9.165-2.956-11.011-7.183-1.364.178-2.717-.6-3.207-1.939-.567-1.548.236-3.26 1.793-3.823.159-.057.32-.1.48-.13C3.034 4.735 8.161 0 14.4 0z"/>
                            <path stroke="#1796E2" stroke-linecap="round" stroke-width="1.5" d="M12.343 4.328c.436.38 1.007.61 1.632.61 1.371 0 2.482-1.106 2.482-2.47C16.457 1.106 15.346 0 13.975 0"/>
                            <circle cx="9.874" cy="10.286" r="1.234" fill="#1796E2"/>
                            <circle cx="18.926" cy="10.286" r="1.234" fill="#1796E2"/>
                            <path stroke="#1796E2" stroke-linecap="square" stroke-width="1.5" d="M9.463 15.65c1.129 1.49 2.917 2.453 4.93 2.453 2.022 0 3.816-.97 4.944-2.469"/>
                        </g>
                    </g>
                </g>
            </g>
        </g>
    </g>
</svg>
