<svg xmlns="http://www.w3.org/2000/svg" width="19" height="20" viewBox="0 0 19 20">
    <g fill="none" fill-rule="evenodd">
        <g fill="#52535A">
            <g>
                <g>
                    <path d="M15.29 11.277l.55.755c.478.669 1.206 1.714 1.936 2.867.14.396.224.795.224 1.18C18 17.692 16.787 19 15.29 19c-1.497 0-2.71-1.308-2.71-2.921 0-.386.085-.786.225-1.183l.296-.473c.828-1.302 1.55-2.299 1.922-2.796l.267-.35zM9.13 2c4.49 0 8.13 3.705 8.13 8.274 0 .416-.33.753-.738.753s-.74-.337-.74-.753c0-3.739-2.978-6.77-6.652-6.77-3.673 0-6.652 3.031-6.652 6.77 0 3.74 2.979 6.77 6.652 6.77.55 0 .911-.023 1.308-.114.144-.032.276-.072.395-.12.38-.15.809.04.957.428.148.387-.04.823-.42.974-.192.076-.395.138-.608.186-.533.122-.979.15-1.632.15-4.49 0-8.13-3.704-8.13-8.274C1 5.704 4.64 2 9.13 2zm6.15 11.823l-.293.431c-.206.308-.414.625-.621.95l-.216.343-.004.012c-.045.15-.072.286-.083.405l-.005.115c0 .8.571 1.417 1.232 1.417.66 0 1.232-.616 1.232-1.417 0-.145-.029-.32-.088-.518l-.305-.476-.415-.626-.434-.636zm-1.54-4.38l.018.111c.036.237.054.478.054.72 0 .435-.058.862-.17 1.274-.109.4-.516.635-.91.524-.393-.11-.623-.525-.514-.925.076-.282.115-.574.115-.873 0-.11-.005-.221-.016-.33l-.032-.24c-.071-.408.198-.799.6-.87.402-.073.785.2.856.61zm-1.152-2.455l.01.009.005.006c.287.292.287.76 0 1.051l-2.055 2.093c.04.136.06.28.06.428 0 .831-.661 1.505-1.478 1.505-.816 0-1.478-.674-1.478-1.505 0-.83.662-1.504 1.478-1.504.118 0 .233.014.343.04l2.079-2.114c.284-.289.747-.293 1.036-.01zM9.13 5.51c.389 0 .771.049 1.142.143.396.101.637.51.537.913-.099.403-.5.647-.896.546-.254-.064-.516-.097-.783-.097-1.768 0-3.202 1.46-3.202 3.26 0 .28.034.555.102.821.103.402-.135.813-.53.917-.395.105-.798-.137-.9-.539-.1-.389-.15-.791-.15-1.2 0-2.63 2.095-4.764 4.68-4.764z" transform="translate(-136 -246) translate(16 138) translate(120 108)"/>
                </g>
            </g>
        </g>
    </g>
</svg>
