<svg xmlns="http://www.w3.org/2000/svg" width="20" height="20" viewBox="0 0 20 20">
    <g fill="none" fill-rule="evenodd">
        <g fill="#1796E2">
            <g>
                <g>
                    <g>
                        <path d="M10.15 4c.358 0 .65.291.65.65l-.001 5.224 4.525-2.612c.31-.18.708-.073.888.238.179.31.073.708-.238.888l-4.526 2.611 4.526 2.613c.31.18.417.577.238.888-.18.31-.577.417-.888.238l-4.525-2.613v5.225c0 .359-.29.65-.65.65-.359 0-.65-.291-.65-.65v-5.225l-4.524 2.613c-.31.18-.708.073-.888-.238-.18-.31-.073-.708.238-.888L8.85 11 4.325 8.388c-.31-.18-.417-.577-.238-.888.18-.31.577-.417.888-.238L9.5 9.874V4.65c0-.359.291-.65.65-.65z" transform="translate(-232 -336) translate(0 140) translate(40 196) translate(192)"/>
                    </g>
                </g>
            </g>
        </g>
    </g>
</svg>
