<svg xmlns="http://www.w3.org/2000/svg" width="16" height="16" viewBox="0 0 16 16">
    <g fill="none" fill-rule="evenodd">
        <g fill="#000">
            <g>
                <g>
                    <g>
                        <g>
                            <path d="M7.647 0c4.217 0 7.647 3.43 7.647 7.647 0 4.217-3.43 7.647-7.647 7.647C3.431 15.294 0 11.864 0 7.647 0 3.431 3.43 0 7.647 0zm0 1.176c-3.568 0-6.47 2.903-6.47 6.471s2.902 6.47 6.47 6.47c3.568 0 6.47-2.902 6.47-6.47 0-3.568-2.902-6.47-6.47-6.47zm0 1.961c.325 0 .588.264.588.588v3.679l2.18 2.18c.23.23.23.602 0 .832-.114.115-.264.172-.415.172-.15 0-.301-.057-.416-.172L7.231 8.063c-.11-.11-.172-.26-.172-.416V3.725c0-.324.263-.588.588-.588z" transform="translate(-294.000000, -619.000000) translate(16.000000, 138.000000) translate(0.000000, 453.000000) translate(194.000000, 19.000000) translate(84.352941, 9.352941)"/>
                        </g>
                    </g>
                </g>
            </g>
        </g>
    </g>
</svg>
