<svg xmlns="http://www.w3.org/2000/svg" width="24" height="24" viewBox="0 0 24 24">
    <g fill="none" fill-rule="evenodd">
        <g fill="#000" fill-rule="nonzero">
            <g>
                <g>
                    <g>
                        <g>
                            <path d="M9.725 15.465v.756H5.742l-1.986 2.27h16.488l-1.986-2.27H14.27v-.756h3.988c.196 0 .384.076.524.211l.045.047 1.986 2.27c.275.314.243.792-.071 1.067-.121.105-.272.17-.43.184l-.068.003H3.756c-.417 0-.756-.339-.756-.756 0-.16.05-.316.144-.445l.043-.054 1.986-2.269c.129-.148.31-.239.504-.255l.065-.003h3.983zM12 14.33c.313 0 .567.254.567.568 0 .313-.254.567-.567.567-.313 0-.567-.254-.567-.567 0-.314.254-.568.567-.568zm1.513-1.89c.313 0 .567.253.567.567 0 .313-.254.567-.567.567-.313 0-.567-.254-.567-.567 0-.314.254-.568.567-.568zm-3.026 0c.313 0 .567.253.567.567 0 .313-.254.567-.567.567-.313 0-.567-.254-.567-.567 0-.314.254-.568.567-.568zm4.539-1.892c.313 0 .567.254.567.567 0 .314-.254.568-.567.568-.314 0-.568-.254-.568-.568 0-.313.254-.567.568-.567zm-3.026 0c.313 0 .567.254.567.567 0 .314-.254.568-.567.568-.313 0-.567-.254-.567-.568 0-.313.254-.567.567-.567zm-3.026 0c.314 0 .568.254.568.567 0 .314-.254.568-.568.568-.313 0-.567-.254-.567-.568 0-.313.254-.567.567-.567zm7.565-1.89c.313 0 .567.253.567.566 0 .314-.254.568-.567.568-.314 0-.568-.254-.568-.568 0-.313.254-.567.568-.567zm-3.026 0c.313 0 .567.253.567.566 0 .314-.254.568-.567.568-.313 0-.567-.254-.567-.568 0-.313.254-.567.567-.567zm-3.026 0c.313 0 .567.253.567.566 0 .314-.254.568-.567.568-.313 0-.567-.254-.567-.568 0-.313.254-.567.567-.567zm-3.026 0c.314 0 .568.253.568.566 0 .314-.254.568-.568.568-.313 0-.567-.254-.567-.568 0-.313.254-.567.567-.567zm10.59-1.892c.314 0 .568.254.568.567 0 .314-.254.568-.568.568-.313 0-.567-.254-.567-.568 0-.313.254-.567.567-.567zm-3.025 0c.313 0 .567.254.567.567 0 .314-.254.568-.567.568-.314 0-.568-.254-.568-.568 0-.313.254-.567.568-.567zm-3.026 0c.313 0 .567.254.567.567 0 .314-.254.568-.567.568-.313 0-.567-.254-.567-.568 0-.313.254-.567.567-.567zm-3.026 0c.314 0 .568.254.568.567 0 .314-.254.568-.568.568-.313 0-.567-.254-.567-.568 0-.313.254-.567.567-.567zm-3.025 0c.313 0 .567.254.567.567 0 .314-.254.568-.567.568-.314 0-.568-.254-.568-.568 0-.313.254-.567.568-.567zm10.59-1.891c.313 0 .567.254.567.567 0 .314-.254.568-.567.568-.314 0-.568-.254-.568-.568 0-.313.254-.567.568-.567zm3.025 0c.314 0 .568.254.568.567 0 .314-.254.568-.568.568-.313 0-.567-.254-.567-.568 0-.313.254-.567.567-.567zm-6.051 0c.313 0 .567.254.567.567 0 .314-.254.568-.567.568-.313 0-.567-.254-.567-.568 0-.313.254-.567.567-.567zm-3.026 0c.313 0 .567.254.567.567 0 .314-.254.568-.567.568-.313 0-.567-.254-.567-.568 0-.313.254-.567.567-.567zm-3.026 0c.314 0 .568.254.568.567 0 .314-.254.568-.568.568-.313 0-.567-.254-.567-.568 0-.313.254-.567.567-.567zm-3.025 0c.313 0 .567.254.567.567 0 .314-.254.568-.567.568-.314 0-.568-.254-.568-.568 0-.313.254-.567.568-.567z" transform="translate(-28.000000, -221.000000) translate(0.000000, 80.000000) translate(24.000000, 105.000000) translate(0.000000, 32.000000) translate(4.000000, 4.000000)"/>
                        </g>
                    </g>
                </g>
            </g>
        </g>
    </g>
</svg>
