<svg xmlns="http://www.w3.org/2000/svg" width="20" height="20" viewBox="0 0 20 20">
    <g fill="none" fill-rule="evenodd">
        <g fill="#1796E2">
            <g>
                <g>
                    <g>
                        <path d="M15.18 5.046l.096.004c.324.038.564.308.574.625l-.004.096-1.196 10.152c0 .863-.663 1.572-1.508 1.644l-.142.006H7c-.86 0-1.567-.66-1.64-1.436l-.006-.138-1.2-10.228c-.041-.356.214-.68.57-.721.324-.038.62.17.703.475l.019.095L5.723 8h8.552l.28-2.38c.037-.325.308-.565.625-.574zm-1.058 4.253H5.875l.775 6.624c0 .169.12.31.28.343l.07.007h6c.17 0 .31-.12.346-.33l.008-.096.182-1.548-2.886.001c-.359 0-.65-.291-.65-.65 0-.359.291-.65.65-.65h3.038l.14-1.2H10.65c-.359 0-.65-.291-.65-.65 0-.359.291-.65.65-.65h3.33l.142-1.2z" transform="translate(-40 -356) translate(0 140) translate(40 196) translate(0 20)"/>
                    </g>
                </g>
            </g>
        </g>
    </g>
</svg>
