<svg xmlns="http://www.w3.org/2000/svg" width="23" height="23" viewBox="0 0 23 23">
    <g fill="none" fill-rule="evenodd">
        <g fill="#000">
            <g>
                <g>
                    <g>
                        <g>
                            <path d="M5.5 10c.828 0 1.5.672 1.5 1.5S6.328 13 5.5 13 4 12.328 4 11.5 4.672 10 5.5 10zm6 0c.828 0 1.5.672 1.5 1.5s-.672 1.5-1.5 1.5-1.5-.672-1.5-1.5.672-1.5 1.5-1.5zm6 0c.828 0 1.5.672 1.5 1.5s-.672 1.5-1.5 1.5-1.5-.672-1.5-1.5.672-1.5 1.5-1.5z" transform="translate(-301.000000, -230.000000) translate(16.000000, 96.000000) translate(0.000000, 20.000000) translate(0.000000, 96.000000) translate(285.000000, 18.000000)"/>
                        </g>
                    </g>
                </g>
            </g>
        </g>
    </g>
</svg>
