<svg xmlns="http://www.w3.org/2000/svg" width="22" height="22" viewBox="0 0 22 22">
    <g fill="none" fill-rule="evenodd">
        <g fill="#52535A">
            <g>
                <g>
                    <g>
                        <path d="M5.242 2.515v1.818h-.606c-.968 0-1.76.757-1.815 1.712l-.003.107v10.303c0 .968.757 1.76 1.712 1.815l.106.003h12.728c.968 0 1.76-.757 1.815-1.712l.003-.106V6.152c0-.969-.757-1.76-1.712-1.816l-.106-.003h-.607V2.515h.607C19.372 2.515 21 4.143 21 6.152v10.303c0 2.008-1.628 3.636-3.636 3.636H4.636C2.628 20.09 1 18.463 1 16.455V6.152c0-2.009 1.628-3.637 3.636-3.637h.606zm2.84 9.697c.273 0 .494.221.494.494v1.436c0 .273-.221.494-.494.494H6.646c-.273 0-.494-.22-.494-.494v-1.436c0-.273.22-.494.494-.494h1.436zm3.636 0c.273 0 .494.221.494.494v1.436c0 .273-.221.494-.494.494h-1.436c-.273 0-.494-.22-.494-.494v-1.436c0-.273.221-.494.494-.494h1.436zm3.636 0c.273 0 .494.221.494.494v1.436c0 .273-.22.494-.494.494h-1.436c-.273 0-.494-.22-.494-.494v-1.436c0-.273.221-.494.494-.494h1.436zM8.082 8.576c.273 0 .494.221.494.494v1.436c0 .273-.221.494-.494.494H6.646c-.273 0-.494-.221-.494-.494V9.07c0-.273.22-.494.494-.494h1.436zm3.636 0c.273 0 .494.221.494.494v1.436c0 .273-.221.494-.494.494h-1.436c-.273 0-.494-.221-.494-.494V9.07c0-.273.221-.494.494-.494h1.436zm3.636 0c.273 0 .494.221.494.494v1.436c0 .273-.22.494-.494.494h-1.436c-.273 0-.494-.221-.494-.494V9.07c0-.273.221-.494.494-.494h1.436zM7.352 1c.341 0 .618.277.618.618V5.23c0 .341-.277.617-.618.617h-.583c-.341 0-.617-.276-.617-.617V1.618c0-.341.276-.618.617-.618h.583zm7.879 0c.341 0 .617.277.617.618V5.23c0 .341-.276.617-.617.617h-.583c-.341 0-.618-.276-.618-.617V1.618c0-.341.277-.618.618-.618h.583zm-2.11 1.515v1.818H8.878V2.515h4.243z" transform="translate(-40 -779) translate(16 726) translate(0 34) translate(24 19)"/>
                    </g>
                </g>
            </g>
        </g>
    </g>
</svg>
