<svg xmlns="http://www.w3.org/2000/svg" width="24" height="24" viewBox="0 0 24 24">
    <g fill="none" fill-rule="evenodd">
        <g fill="#B3B3B5">
            <g>
                <g>
                    <path d="M12.417 3c2.573 0 4.667 2.093 4.667 4.667v.832l.75.001c1.103 0 2 .897 2 2v8.083c0 1.103-.897 2-2 2H7c-1.103 0-2-.897-2-2V10.5c0-1.103.897-2 2-2l.75-.001v-.832C7.75 5.093 9.844 3 12.417 3zm5.417 7.5H6.999L7 18.583h10.834V10.5zM12.417 5C10.946 5 9.75 6.196 9.75 7.667v.832h5.334v-.832C15.084 6.196 13.888 5 12.417 5z" transform="translate(-28 -155) translate(16 146) translate(12 9)"/>
                </g>
            </g>
        </g>
    </g>
</svg>
