<svg width="72" height="72" viewBox="0 0 72 72" xmlns="http://www.w3.org/2000/svg">
    <g fill="none" fill-rule="evenodd">
        <circle stroke="#CDCED3" fill="#FFF" cx="36" cy="36" r="35.5"/>
        <path d="M28.531 19.3c.488 0 .935.178 1.278.473.307-.265.7-.436 1.13-.468l.147-.005h3.364c.481 0 .922.173 1.263.46a1.951 1.951 0 0 1 1.116-.455l.147-.005h3.364c.48 0 .92.172 1.26.458a1.92 1.92 0 0 1 1.104-.453l.145-.005h3.69a1.99 1.99 0 0 1 1.8 1.148l.022.053h.004l7.557 17.607.079.205a2.7 2.7 0 0 1 .14.86v6.316h.009l-.061 3.55a2.698 2.698 0 0 1-2.528 2.656l-.168.005H18.496a2.698 2.698 0 0 1-2.69-2.53L15.8 49v-3.504l.029-5.58v-.606l.003-.001.002-.162c.001-.271.044-.54.125-.799l.068-.19 7.133-17.829a1.7 1.7 0 0 1 1.415-1.023l.146-.006h3.81zM17.21 43.304l-.011 2.196V49a1.3 1.3 0 0 0 1.165 1.293l.133.007h34.897c.665 0 1.214-.501 1.29-1.15l.008-.13.051-3.52v-2.192c-.05.009-.102.015-.153.02l-.147.006H17.527c-.108 0-.215-.01-.318-.03zm37.532-4.085.004.07a1.18 1.18 0 0 0-1.056-1.178l-.12-.006h-5.943c-.609 0-1.11.466-1.17 1.062l-.002.021.003.1h-1.4c0-.612-.465-1.116-1.061-1.177l-.121-.006H37.9c-.613 0-1.116.466-1.177 1.062l-.006.121h-1.4c0-.612-.466-1.116-1.062-1.177l-.12-.006h-5.976c-.612 0-1.116.466-1.177 1.062l-.006.121h-1.4c0-.612-.465-1.116-1.061-1.177l-.121-.006h-5.975c-.613 0-1.116.466-1.177 1.062l-.006.121h-.006l-.003.582v1.764a.3.3 0 0 0 .232.292l.068.008h36.915a.3.3 0 0 0 .292-.231l.008-.069-.001-2.415zM28.531 20.7h-3.81a.3.3 0 0 0-.268.165l-.023.063-.004-.001-6.321 15.797c.05-.006.1-.01.15-.014l.164-.005h5.975c.742 0 1.411.314 1.882.815a2.575 2.575 0 0 1 1.72-.81l.163-.005h5.975c.743 0 1.412.314 1.883.815a2.575 2.575 0 0 1 1.72-.81l.163-.005h5.975c.741 0 1.41.313 1.88.813a2.555 2.555 0 0 1 1.709-.808l.162-.005h5.943c.078 0 .156.004.233.01l-6.724-15.663.005-.002-.019-.041a.603.603 0 0 0-.432-.302l-.093-.007h-3.69a.56.56 0 0 0-.55.468l.004.095h-1.4a.563.563 0 0 0-.472-.556l-.091-.007h-3.364a.563.563 0 0 0-.556.471l-.007.092h-1.4a.563.563 0 0 0-.472-.556l-.09-.007h-3.365a.563.563 0 0 0-.555.471l-.008.092h-1.43a.563.563 0 0 0-.47-.556l-.092-.007zm7.975 11.408v1.362h-1.429v-1.362h1.43zm-9.384 0v1.362h-1.429v-1.362h1.43zm18.768 0v1.362h-1.43v-1.362h1.43zm-9.384-4.302v1.362h-1.429v-1.362h1.43zm-7.686 0v1.362h-1.43v-1.362h1.43zm15.373 0v1.362h-1.43v-1.362h1.43zm-7.687-3.953v1.362h-1.429v-1.362h1.43zm-6.064 0v1.362h-1.429v-1.362h1.43zm12.128 0v1.362h-1.43v-1.362h1.43z" fill="#979797" fill-rule="nonzero"/>
    </g>
</svg>
