<svg xmlns="http://www.w3.org/2000/svg" width="22" height="22" viewBox="0 0 22 22">
    <g fill="none" fill-rule="evenodd">
        <g fill="#D9DBDC">
            <g>
                <g>
                    <g>
                        <path d="M14.442 3.21c.145.179.225.402.225.632v13.713c0 .552-.448 1-1 1-.23 0-.454-.08-.632-.225l-5.213-4.246H4.667c-.553 0-1-.448-1-1V8.446c0-.552.447-1 1-1h2.992l5.376-4.38c.428-.348 1.058-.284 1.407.144zm3.293 4.994c.74.946 1.131 2.082 1.131 3.287 0 1.207-.393 2.347-1.138 3.295-.135.173-.337.263-.541.263-.148 0-.297-.047-.424-.146-.299-.234-.35-.667-.116-.966.553-.704.844-1.55.844-2.446 0-.894-.29-1.738-.84-2.44-.233-.3-.18-.732.119-.966.298-.235.73-.18.965.119z" transform="translate(-40.000000, -848.000000) translate(16.000000, 138.000000) translate(0.000000, 629.000000) translate(24.000000, 81.000000)"/>
                    </g>
                </g>
            </g>
        </g>
    </g>
</svg>
