<svg xmlns="http://www.w3.org/2000/svg" width="64" height="64" viewBox="0 0 64 64">
    <defs>
        <linearGradient id="7oidrz48oa" x1="11.596%" x2="88.496%" y1="17.448%" y2="88.619%">
            <stop offset="0%" stop-color="#1897E3"/>
            <stop offset="100%" stop-color="#16BDE3"/>
        </linearGradient>
    </defs>
    <g fill="none" fill-rule="evenodd">
        <g fill="url(#7oidrz48oa)" fill-rule="nonzero" transform="translate(-24 -278)">
            <g>
                <g>
                    <g>
                        <path d="M31.678 5c.126 0 .248.012.367.035 1.07.175 1.886 1.104 1.886 2.223v24.268c0 1.244-1.009 2.253-2.253 2.253-1.244 0-2.253-1.009-2.253-2.253v-4.33c-2.08.873-3.54 2.919-3.54 5.304 0 3.179 2.594 5.756 5.793 5.756 3.2 0 5.793-2.577 5.793-5.756 0-.992-.251-1.943-.722-2.787l-.113-.193c-.553-.906-.262-2.086.65-2.635.911-.55 2.099-.26 2.652.645.908 1.487 1.395 3.195 1.395 4.97 0 5.298-4.322 9.593-9.655 9.593-5.332 0-9.655-4.295-9.655-9.593 0-4.527 3.157-8.322 7.402-9.33v-5.21c-7.107 1.078-12.551 7.177-12.551 14.54 0 2.911.85 5.625 2.32 7.909.487-.153 1.005-.235 1.542-.235 2.844 0 5.15 2.291 5.15 5.117 0 .247-.019.49-.053.727 1.793.767 3.769 1.191 5.845 1.191 8.177 0 14.805-6.585 14.805-14.709 0-5.346-2.894-10.188-7.485-12.789-.926-.524-1.249-1.696-.72-2.617.527-.92 1.707-1.241 2.633-.716 5.785 3.276 9.434 9.383 9.434 16.122 0 10.243-8.358 18.547-18.667 18.547-2.788 0-5.433-.608-7.809-1.696-.867.662-1.954 1.056-3.133 1.056-2.844 0-5.15-2.29-5.15-5.116 0-.877.222-1.702.613-2.423-2.013-2.96-3.188-6.527-3.188-10.368 0-9.485 7.167-17.308 16.415-18.413l-.001-5.145c-4.628.431-8.871 2.179-12.347 4.861.283.633.44 1.333.44 2.07 0 2.825-2.306 5.115-5.15 5.115-.483 0-.95-.066-1.394-.19-1.98 3.45-3.112 7.445-3.112 11.702 0 13.069 10.663 23.663 23.816 23.663 7.707 0 14.56-3.638 18.912-9.279-.561-.819-.889-1.808-.889-2.872 0-2.747 2.178-4.988 4.912-5.111.574-2.036.881-4.183.881-6.401 0-9.418-5.587-17.822-14.088-21.606-.974-.433-1.41-1.568-.973-2.535.436-.967 1.578-1.4 2.552-.967C52.863 11.79 59.356 21.556 59.356 32.5c0 2.666-.381 5.242-1.093 7.68 1.065.936 1.737 2.306 1.737 3.832 0 2.825-2.305 5.116-5.15 5.116-.357 0-.707-.036-1.044-.105C48.755 55.689 40.723 60 31.678 60 16.392 60 4 47.688 4 32.5c0-5.147 1.423-9.964 3.9-14.083-.434-.749-.682-1.618-.682-2.545 0-2.826 2.306-5.116 5.15-5.116.673 0 1.316.128 1.905.361C19.027 7.292 25.083 5 31.678 5zM20.736 44.012c-.711 0-1.288.572-1.288 1.279 0 .706.577 1.279 1.288 1.279.71 0 1.287-.573 1.287-1.28 0-.706-.576-1.278-1.287-1.278zm34.115-1.28c-.711 0-1.288.573-1.288 1.28 0 .706.577 1.279 1.288 1.279.71 0 1.287-.573 1.287-1.28 0-.706-.576-1.278-1.287-1.278zM12.368 14.594c-.711 0-1.288.573-1.288 1.28 0 .706.577 1.278 1.288 1.278.71 0 1.287-.572 1.287-1.279 0-.706-.576-1.279-1.287-1.279z" transform="translate(0 130) translate(0 124) translate(24 24)"/>
                    </g>
                </g>
            </g>
        </g>
    </g>
</svg>
