<svg xmlns="http://www.w3.org/2000/svg" width="22" height="22" viewBox="0 0 22 22">
    <g fill="none" fill-rule="evenodd">
        <g fill="#D9DBDC">
            <g>
                <g>
                    <g>
                        <g>
                            <path d="M12.609 3.21c.145.179.224.402.224.632v13.713c0 .552-.447 1-1 1-.23 0-.453-.08-.631-.225l-5.214-4.246H2.833c-.552 0-1-.448-1-1V8.446c0-.552.448-1 1-1h2.992l5.377-4.38c.428-.348 1.058-.284 1.407.144zm4.867 2.14c1.869 1.506 2.941 3.744 2.941 6.141 0 2.392-1.068 4.627-2.931 6.133-.128.103-.28.153-.433.153-.2 0-.4-.088-.534-.255-.24-.296-.194-.729.102-.967 1.539-1.243 2.421-3.089 2.421-5.064 0-1.979-.885-3.827-2.429-5.07-.296-.238-.343-.672-.104-.967.239-.296.673-.34.967-.104zm-1.574 2.854c.74.946 1.13 2.082 1.13 3.287 0 1.207-.393 2.347-1.137 3.295-.136.173-.337.263-.542.263-.147 0-.297-.047-.423-.146-.299-.234-.351-.667-.117-.966.553-.704.845-1.55.845-2.446 0-.894-.29-1.738-.84-2.44-.234-.3-.18-.732.118-.966.3-.235.73-.18.966.119z" transform="translate(-298.000000, -848.000000) translate(16.000000, 138.000000) translate(0.000000, 629.000000) translate(24.000000, 81.000000) translate(258.000000, 0.000000)"/>
                        </g>
                    </g>
                </g>
            </g>
        </g>
    </g>
</svg>
