<svg xmlns="http://www.w3.org/2000/svg" width="96" height="96" viewBox="0 0 96 96">
    <g fill="none" fill-rule="evenodd">
        <g>
            <g>
                <g transform="translate(-132 -264) translate(24 192) translate(108 72)">
                    <circle cx="48" cy="48" r="48" fill="#F5F7F9"/>
                    <path stroke="#1796E2" stroke-linecap="round" stroke-width="2" d="M61.413 37.477c-.266-.482-.594-.998-.984-1.547l-.35-.48-.187-.245-.397-.504-.21-.258-.442-.528c-.152-.179-.31-.36-.473-.544l-.504-.561-.534-.577-.565-.594-.596-.61-.627-.627-.657-.642-.688-.66-.719-.675-1.136-1.044-.795-.717-.826-.732-1.297-1.13-.903-.774-.463-.393C37.294 31.295 31.91 39.369 31.91 47.858c0 8.489 5.383 15.08 16.149 19.777l.975-.6.944-.591.911-.584.444-.29.863-.573.83-.566.404-.28.783-.556.38-.274.734-.544c.12-.09.238-.18.355-.27l.686-.533c3.463-2.734 5.639-5.175 6.528-7.322"/>
                    <path fill-rule="nonzero" stroke="#1796E2" stroke-linecap="round" stroke-width="2" d="M55.234 44.773c1.377-.914 2.92-1.673 4.637-1.76 3.306-.168 4.415 1.353 6.305 2.083 1.774.685 4.96 1.365 8.005-.782M55.234 50.151c1.377-.915 2.92-1.674 4.637-1.76 3.306-.168 4.415 1.353 6.305 2.083 1.774.685 4.96 1.365 8.005-.782"/>
                    <rect width="2" height="34" x="47" y="43.106" fill="#1796E2" rx="1"/>
                </g>
            </g>
        </g>
    </g>
</svg>
