<svg width="108" height="108" viewBox="0 0 108 108" xmlns="http://www.w3.org/2000/svg">
    <g fill="none" fill-rule="evenodd">
        <circle stroke="#CDCED3" fill="#FFF" cx="54" cy="54" r="53.5"/>
        <path d="M52.5 32.25a6 6 0 1 1 0 12 6 6 0 0 1 0-12zm0 2.4a3.6 3.6 0 1 0 0 7.2 3.6 3.6 0 0 0 0-7.2zM69.375 22.5c3.107 0 5.625 2.62 5.625 5.85v5.293c-.254 0-.492.01-.714.033-.333.033-.474.084-.789.198-.21.076-.459.224-.748.444l.001-5.968c0-1.817-1.328-3.312-3.03-3.492l-.345-.018h-33.75c-1.747 0-3.185 1.381-3.358 3.151l-.017.359v46.8c0 1.817 1.328 3.312 3.03 3.492l.345.018h33.75c1.747 0 3.185-1.381 3.358-3.151l.017-.359-.001-24.301H75V75.15c0 3.152-2.397 5.722-5.4 5.845V87a2.25 2.25 0 0 1-2.25 2.25h-1.799a2.25 2.25 0 0 1-2.227-1.932L62.421 81H42.578l-.902 6.318a2.25 2.25 0 0 1-2.06 1.926l-.167.006H37.65A2.25 2.25 0 0 1 35.4 87v-6.005c-3.003-.123-5.4-2.693-5.4-5.845v-46.8c0-3.23 2.518-5.85 5.625-5.85h33.75zM67.5 81h-2.96l.863 6.021a.15.15 0 0 0 .095.12l.053.009h1.799a.15.15 0 0 0 .138-.092L67.5 87v-6zm-27.041 0h-2.96l.001 6 .012.058a.15.15 0 0 0 .138.092h1.799l.053-.01a.15.15 0 0 0 .095-.119L40.46 81zm43.325-40.5c2.273 0 4.116 1.679 4.116 3.75 0 1.95-1.632 3.551-3.72 3.733l-.396.017H69.576c-.65 0-1.176-.48-1.176-1.071 0-.518.403-.95.94-1.05l.236-.022h14.208c.974 0 1.764-.72 1.764-1.607 0-.888-.79-1.607-1.764-1.607-.718 0-1.207.45-1.514 1.152-.24.55-.924.818-1.528.6-.603-.22-.898-.843-.657-1.393.623-1.426 1.791-2.502 3.699-2.502zM76.415 36c2.201 0 3.985 1.679 3.985 3.75 0 1.95-1.58 3.551-3.601 3.733l-.384.017h-6.877c-.628 0-1.138-.48-1.138-1.071 0-.518.39-.95.91-1.05l.228-.022h6.877c.943 0 1.708-.72 1.708-1.607 0-.888-.765-1.607-1.708-1.607-.725 0-1.194.359-1.514.996l-.106.247c-.201.56-.847.862-1.443.672-.596-.189-.916-.797-.715-1.357.56-1.56 1.867-2.701 3.778-2.701z" fill="#8E8E93"/>
    </g>
</svg>
