<svg xmlns="http://www.w3.org/2000/svg" xmlns:xlink="http://www.w3.org/1999/xlink" width="72" height="72" viewBox="0 0 72 72">
    <defs>
        <path id="9khvc7yl8a" d="M0 .843c2.901 8.123 6.618 13.003 11.151 14.641 6.801 2.458 24.211 2.458 28.35-4.037C42.26 7.117 44.093 4.095 45 2.38c-13.495 4.633-17.863 1.061-27.501-.938C12.928.535 9.252 0 6.076 0 3.851 0 1.872.263 0 .843z"/>
        <path id="8paf38djxb" d="M27.501 1.437C17.863 3.43 13.494 6.991 0 2.373c.59 1.345 2.424 4.359 5.499 9.04 4.613 7.023 22.615 6.313 29.415 3.862C39.448 13.642 42.81 8.83 45 .84 43.128.261 41.149 0 38.924 0c-3.176 0-6.852.532-11.423 1.437z"/>
    </defs>
    <g fill="none" fill-rule="evenodd">
        <g>
            <g>
                <g>
                    <path d="M0 0H72V72H0z" transform="translate(-248.000000, -217.000000) translate(16.000000, 138.000000) translate(232.000000, 79.000000)"/>
                    <g>
                        <g transform="translate(-248.000000, -217.000000) translate(16.000000, 138.000000) translate(232.000000, 79.000000) translate(8.000000, 5.000000) translate(5.250100, 33.000000)">
                            <use fill="#3EC6FD" opacity=".8" xlink:href="#9khvc7yl8a"/>
                        </g>
                        <g transform="translate(-248.000000, -217.000000) translate(16.000000, 138.000000) translate(232.000000, 79.000000) translate(8.000000, 5.000000) translate(5.250100, 33.001000)">
                            <use fill="#3EC6FD" opacity=".6" xlink:href="#8paf38djxb"/>
                        </g>
                        <path fill="#1796E2" d="M51.871 19.991c2.553 0 4.629 2.077 4.629 4.63 0 2.284-1.663 4.188-3.843 4.562-.506 6.132-3.169 11.882-7.479 16.029-1.495 1.44-3.162 2.662-4.953 3.633-.378.205-.76.397-1.144.578l2.094 8.426c.21.843.078 1.716-.37 2.46-.446.744-1.157 1.27-2 1.478-.258.064-.52.096-.783.096H17.29c-1.792 0-3.25-1.458-3.25-3.25 0-.262.032-.525.096-.783l2.127-8.562C8.876 45.695 3.581 37.996 2.93 28.926 1.215 28.248 0 26.574 0 24.62c0-2.552 2.076-4.629 4.629-4.629h47.242zM18.597 50.26l-2.034 8.192c-.015.06-.022.121-.022.181 0 .414.336.75.75.75h20.73c.062 0 .123-.008.184-.022.192-.048.356-.169.46-.34.102-.173.132-.374.085-.569l-2.011-8.09c-2.178.728-4.446 1.095-6.78 1.095H25.65c-2.46 0-4.831-.42-7.053-1.197zm31.546-21.01l-44.678.001c1.031 11.051 9.691 19.706 20.185 19.706h4.308c3.19 0 6.244-.777 9.076-2.311 1.593-.862 3.077-1.951 4.41-3.235 3.81-3.665 6.187-8.733 6.699-14.16zm1.728-6.759H4.629c-1.174 0-2.129.955-2.129 2.13 0 1.174.955 2.13 2.129 2.13h47.242c1.174 0 2.129-.956 2.129-2.13 0-1.175-.955-2.13-2.129-2.13zm-23.81-8.974l.144.007c.713.068 1.281.636 1.35 1.349l.006.144-.007.145c-.068.713-.636 1.28-1.349 1.348l-.144.007-.144-.007c-.762-.072-1.357-.713-1.357-1.493 0-.828.672-1.5 1.501-1.5zm.19-6.759l.145.006c.817.07 1.468.722 1.538 1.54l.006.145-.006.146c-.07.816-.72 1.467-1.538 1.537l-.146.006-.146-.006c-.865-.074-1.544-.8-1.544-1.683 0-.934.756-1.691 1.69-1.691zM9.904 3.862l.146.006c.817.07 1.468.721 1.538 1.538l.006.146-.006.146c-.07.816-.721 1.467-1.538 1.537l-.146.006-.146-.006c-.864-.074-1.543-.8-1.543-1.683 0-.933.756-1.69 1.69-1.69zm36.69 0l.145.006c.818.07 1.468.721 1.538 1.538l.006.146-.006.146c-.07.816-.72 1.467-1.538 1.537l-.146.006-.146-.006c-.863-.074-1.543-.8-1.543-1.683 0-.933.757-1.69 1.69-1.69zm-24.138-.966l.146.006c.817.07 1.467.722 1.537 1.54l.006.145-.006.146c-.07.816-.72 1.467-1.537 1.537l-.146.006-.146-.006c-.865-.074-1.543-.8-1.543-1.683 0-.934.755-1.691 1.69-1.691zm11.586 0l.146.006c.817.07 1.467.722 1.537 1.54l.006.145-.006.146c-.07.816-.72 1.467-1.537 1.537l-.146.006-.146-.006c-.863-.074-1.543-.8-1.543-1.683 0-.934.757-1.691 1.69-1.691zM15.698 0l.146.006c.817.07 1.467.72 1.537 1.538l.006.146-.006.146c-.07.817-.72 1.468-1.537 1.538l-.146.006-.146-.006c-.864-.074-1.543-.8-1.543-1.684 0-.934.756-1.69 1.69-1.69zm25.104 0l.146.006c.817.07 1.467.72 1.537 1.538l.006.146-.006.146c-.07.817-.72 1.468-1.537 1.538l-.146.006-.146-.006c-.864-.074-1.543-.8-1.543-1.684 0-.934.756-1.69 1.69-1.69z" transform="translate(-248.000000, -217.000000) translate(16.000000, 138.000000) translate(232.000000, 79.000000) translate(8.000000, 5.000000)"/>
                    </g>
                </g>
            </g>
        </g>
    </g>
</svg>
