<svg width="96" height="96" viewBox="0 0 96 96" xmlns="http://www.w3.org/2000/svg">
    <g fill="none" fill-rule="evenodd">
        <circle fill="#1796E2" cx="48" cy="48" r="48"/>
        <path d="M48.5 26.5c0-1.289 1.518-1.978 2.488-1.129l12 10.5a1.5 1.5 0 0 1 0 2.258L52.278 47.5l10.71 9.371a1.5 1.5 0 0 1 .113 2.148l-.113.11-12 10.5c-.97.849-2.488.16-2.488-1.129V50.65c-.236.201-.49.42-.76.654l-1.602 1.398a860.458 860.458 0 0 0-6.685 5.949l-5.696 5.132a1.5 1.5 0 1 1-2.012-2.226c4.186-3.783 7.611-6.857 10.277-9.222l3.239-2.851a141.81 141.81 0 0 1 2.391-2.046L31.763 33.537a1.5 1.5 0 1 1 1.976-2.258l14.76 12.915zm3 24.304v14.391L59.723 58 51.5 50.804zm0-21v14.391L59.723 37 51.5 29.804z" fill="#FFF"/>
    </g>
</svg>
