<svg xmlns="http://www.w3.org/2000/svg" width="32" height="32" viewBox="0 0 32 32">
    <g fill="none" fill-rule="evenodd">
        <g fill="#231815">
            <g>
                <g>
                    <g>
                        <path d="M22.762 20.4c2.307 0 4.23.716 5.238 1.178v1.667l-.092.157c-.023-.014-2.302-1.327-5.146-1.327-2.768 0-4.606 1.114-6.25 2.254-.278.193-.56.416-.86.65-1.38 1.083-3.271 2.565-6.345 2.565-2.35 0-4.225-.824-5.307-1.443v-1.92l.041-.05c.021.017 2.202 1.737 5.266 1.737 2.495 0 3.991-1.173 5.31-2.207.327-.256.637-.498.94-.709 1.377-.955 3.682-2.552 7.205-2.552zm0-7.8c2.307 0 4.23.716 5.238 1.178v1.667l-.092.157c-.023-.013-2.302-1.327-5.146-1.327-2.769 0-4.606 1.114-6.25 2.255-.279.193-.562.416-.861.651-1.38 1.081-3.27 2.563-6.344 2.563-2.35 0-4.225-.824-5.307-1.443v-1.92l.04-.05c.022.018 2.203 1.737 5.267 1.737 2.495 0 3.99-1.172 5.31-2.206.327-.256.637-.498.94-.71 1.78-1.235 3.952-2.553 7.205-2.553zm0-7.8c2.307 0 4.23.717 5.238 1.179v1.667l-.092.156c-.023-.013-2.302-1.326-5.146-1.326-2.768 0-4.605 1.113-6.25 2.255-.278.193-.562.415-.861.65-1.38 1.082-3.27 2.564-6.345 2.564-2.35 0-4.225-.824-5.306-1.444v-1.92l.04-.05c.022.018 2.204 1.738 5.266 1.738 2.496 0 3.992-1.172 5.31-2.206.328-.256.638-.499.941-.71C17.337 6.118 19.51 4.8 22.762 4.8z" transform="translate(-247.000000, -325.000000) translate(16.000000, 138.000000) translate(189.000000, 187.000000) translate(42.000000, 0.000000)"/>
                    </g>
                </g>
            </g>
        </g>
    </g>
</svg>
