<svg xmlns="http://www.w3.org/2000/svg" xmlns:xlink="http://www.w3.org/1999/xlink" width="120" height="120" viewBox="0 0 120 120">
    <defs>
        <path id="lq0waavina" d="M61.38 32.447l-.268.277c-4.486 4.73-6.127 11.424-4.507 17.667l.034.123-3.147 3.183-7.804-7.898 2.516-2.545c.175-.176.329-.374.457-.588.886-1.476.421-3.4-1.04-4.298l-12.696-7.799c-1.217-.748-2.784-.557-3.79.462l-1.501 1.518c-1.008 1.02-1.197 2.605-.457 3.837l7.708 12.846c.13.214.283.411.457.588l.132.125c1.214 1.095 3.076 1.052 4.24-.125l2.517-2.545 7.804 7.897-22.154 22.413c-3.743 3.788-3.859 9.834-.23 13.506l.194.188.197.185c3.656 3.284 9.345 3.048 12.957-.606l16.33-16.523.366.383L77.027 92.25l.194.193c3.637 3.471 9.366 3.407 12.923-.193 3.624-3.665 3.624-9.607 0-13.27L75.736 64.402c4.39-.273 8.63-2.126 11.88-5.412 5.475-5.54 6.885-13.895 3.72-20.943-.298-.662-1.158-.82-1.667-.305l-7.155 7.239-.154.149c-2.012 1.89-5.173 1.836-7.133-.15-2.013-2.036-2.013-5.337 0-7.372l7.153-7.24c.509-.515.353-1.385-.302-1.686C79.62 27.553 77.002 27 74.4 27c-4.77 0-9.479 1.863-13.022 5.447zM31.108 89.615c-2.811-2.843-2.72-7.57.23-10.554l27.186-27.506c.27-.273.368-.673.257-1.042-1.767-5.84-.268-12.217 4.054-16.59l.258-.257c4.428-4.286 10.784-5.643 16.478-3.738l.247.084-6.05 6.122c-2.818 2.85-2.818 7.473 0 10.322 2.746 2.778 7.171 2.857 10.008.19l.18-.176 6.064-6.136.085.25c1.919 5.874.488 12.445-3.948 16.933-4.323 4.373-10.628 5.889-16.4 4.102-.364-.114-.76-.015-1.03.258L41.543 89.383c-1.517 1.534-3.487 2.304-5.426 2.304-1.835 0-3.64-.69-5.007-2.072zm7.691-41.27c-.058-.059-.11-.125-.152-.196l-7.71-12.846c-.246-.41-.183-.938.153-1.278l1.502-1.52c.335-.34.856-.402 1.263-.153l12.697 7.799c.486.298.641.94.345 1.433-.042.072-.093.136-.151.196l-6.49 6.566c-.201.203-.465.305-.729.305-.263 0-.527-.102-.728-.305zm39.684 42.432l-17.32-17.521-.378-.396 8.97-9.073.123.034c.954.253 1.919.428 2.886.524l15.921 16.11.174.179c2.643 2.861 2.586 7.351-.174 10.143-1.408 1.425-3.254 2.137-5.1 2.137-1.847 0-3.693-.712-5.102-2.137z"/>
    </defs>
    <g fill="none" fill-rule="evenodd">
        <g>
            <g>
                <g>
                    <g transform="translate(-120.000000, -156.000000) translate(20.000000, 60.000000) translate(24.000000, 96.000000) translate(76.000000, 0.000000)">
                        <circle cx="60" cy="60" r="60" fill="#F5F7F9"/>
                        <use fill="#6D6D72" xlink:href="#lq0waavina"/>
                    </g>
                </g>
            </g>
        </g>
    </g>
</svg>
