<svg xmlns="http://www.w3.org/2000/svg" width="42" height="42" viewBox="0 0 42 42">
    <g fill="none" fill-rule="evenodd">
        <g fill="#1796E2">
            <g>
                <g>
                    <g transform="translate(-40.000000, -758.000000) translate(16.000000, 588.000000) translate(24.000000, 64.000000) translate(0.000000, 106.000000)">
                        <circle cx="21" cy="21" r="21" opacity=".08"/>
                        <g>
                            <path d="M15 3.53c6.325 0 11.47 5.145 11.47 11.47 0 6.325-5.145 11.47-11.47 11.47-6.325 0-11.47-5.145-11.47-11.47C3.53 8.675 8.674 3.53 15 3.53zm0 1.764C9.649 5.294 5.294 9.65 5.294 15c0 5.351 4.355 9.706 9.706 9.706 5.351 0 9.706-4.355 9.706-9.706 0-5.351-4.355-9.706-9.706-9.706zm0 2.941c.488 0 .882.395.882.882v5.518l3.271 3.27c.345.346.345.903 0 1.248-.172.172-.398.259-.624.259-.225 0-.451-.087-.623-.259l-3.53-3.53c-.166-.164-.258-.39-.258-.623V9.117c0-.487.394-.882.882-.882z" transform="translate(6.000000, 6.000000)"/>
                        </g>
                    </g>
                </g>
            </g>
        </g>
    </g>
</svg>
