<svg xmlns="http://www.w3.org/2000/svg" width="18" height="18" viewBox="0 0 18 18">
  <g id="icon-etc-detail" transform="translate(-16 -87)">
    <path id="패스_1" data-name="패스 1" d="M25,87a9,9,0,1,1-9,9,9,9,0,0,1,9-9Zm0,1a8,8,0,1,0,8,8A8,8,0,0,0,25,88Zm-.139,11.229a.662.662,0,0,1,.506.185.644.644,0,0,1,.172.457.622.622,0,0,1-.172.45.669.669,0,0,1-.506.179.659.659,0,0,1-.5-.179.629.629,0,0,1-.17-.45.612.612,0,0,1,.672-.642Zm.173-7.729a2.543,2.543,0,0,1,1.816.614A2.211,2.211,0,0,1,27.5,93.8a2.89,2.89,0,0,1-.84,1.916l-.159.172-.672.654-.094.114a1.648,1.648,0,0,0-.25.506,2.462,2.462,0,0,0-.068.29.616.616,0,0,1-.608.5.473.473,0,0,1-.529-.458,1.312,1.312,0,0,1,.014-.237,2.38,2.38,0,0,1,.111-.443,2.615,2.615,0,0,1,.48-.759l.149-.167.808-.817.12-.145a1.749,1.749,0,0,0,.4-1.09,1.394,1.394,0,0,0-.339-1,1.29,1.29,0,0,0-.986-.36,1.5,1.5,0,0,0-1.011.326,1.02,1.02,0,0,0-.25.309c-.067.124-.226.569-.7.569a.484.484,0,0,1-.406-.207.517.517,0,0,1-.08-.4,1.958,1.958,0,0,1,.628-.973,2.7,2.7,0,0,1,1.822-.6Z" fill="#52535a" fill-rule="evenodd"/>
  </g>
</svg>
