<svg xmlns="http://www.w3.org/2000/svg" width="19" height="19" viewBox="0 0 19 19">
    <g fill="none" fill-rule="evenodd">
        <g fill="#1796E2" fill-rule="nonzero">
            <g>
                <g>
                    <g>
                        <g>
                            <path d="M15.325 6.275c1.242 2.475.745 5.535-1.286 7.565-1.855 1.856-4.572 2.431-6.916 1.567l.2.495.025.08c.044.215-.07.437-.28.522-.237.096-.507-.018-.602-.255l-.651-1.611-.025-.08c-.044-.215.07-.438.28-.523l1.611-.65.08-.025c.215-.044.438.07.523.28l.024.08c.044.215-.07.437-.28.522l-.661.268c2.024.782 4.399.295 6.018-1.324 1.749-1.749 2.176-4.378 1.113-6.496-.114-.229-.022-.507.206-.621.229-.115.507-.023.621.206zm-2.738-4.046l.035.076.594 1.632c.078.214-.011.447-.2.558l-.076.035-1.633.595c-.24.087-.506-.037-.593-.277-.078-.213.012-.447.201-.558l.076-.035.546-.2c-2.003-.73-4.328-.233-5.922 1.36-1.75 1.75-2.176 4.38-1.112 6.5.115.227.022.505-.206.62-.228.115-.506.023-.621-.206-1.243-2.475-.747-5.537 1.285-7.568 1.881-1.882 4.648-2.446 7.014-1.53l-.222-.61c-.078-.213.011-.447.2-.558l.076-.035c.213-.078.447.012.558.2z" transform="translate(-248.000000, -152.000000) translate(16.000000, 138.000000) translate(0.000000, 11.000000) translate(232.000000, 1.000000) translate(0.000000, 2.000000)"/>
                        </g>
                    </g>
                </g>
            </g>
        </g>
    </g>
</svg>
