<svg width="56" height="56" xmlns="http://www.w3.org/2000/svg">
    <g fill="none" fill-rule="evenodd">
        <circle fill="#FFF" cx="28" cy="28" r="28"/>
        <path d="m28.57 15.502 1.49.014c1.542.02 3.085.055 4.528.11l.773.033 1.082.054.989.062.606.046.563.05.519.054.243.029.451.06.21.033.382.068a5.524 5.524 0 0 1 4.375 4.028c.237.89.405 2.068.524 3.485.085 1.024.14 2.115.17 3.205l.018.808.006.856-.016.977-.007.28c-.03 1.09-.086 2.182-.171 3.206-.119 1.417-.287 2.595-.524 3.485a5.524 5.524 0 0 1-3.887 3.917 8.733 8.733 0 0 1-.87.18l-.43.063-.474.058-.519.054-.563.05-.606.046-.989.062-.711.037-1.144.05c-1.154.044-2.372.075-3.603.097l-1.704.022-1.85.005-1.491-.014c-1.543-.02-3.085-.055-4.528-.11l-1.144-.05-.711-.037-.67-.04-.925-.068-.563-.05-.519-.054-.474-.058-.22-.031-.406-.066a7.9 7.9 0 0 1-.673-.146 5.524 5.524 0 0 1-3.888-3.916c-.237-.891-.405-2.07-.524-3.486a58.413 58.413 0 0 1-.17-3.205l-.019-.808-.006-.653.006-.653.018-.808c.03-1.09.086-2.18.171-3.205.119-1.417.287-2.595.524-3.485a5.524 5.524 0 0 1 4.2-3.992l.36-.07.406-.066.452-.061.497-.057.54-.052.288-.024.606-.046.989-.062 1.082-.054.773-.032c1.154-.045 2.372-.076 3.603-.097l2.415-.028h1.14zm-.298 2.999h-.825l-1.469.014c-1.518.02-3.037.055-4.45.11l-1.01.043-1.227.067-.825.057-.736.062-.642.067-.371.047-.326.05-.276.051a2.525 2.525 0 0 0-1.996 1.843c-.116.436-.218 1.01-.303 1.693l-.07.612c-.022.212-.042.433-.061.661-.065.77-.11 1.588-.142 2.416l-.033 1.148-.01.67.003.554.02 1.005c.03 1.039.081 2.076.162 3.038.019.229.04.45.061.662l.07.612c.085.683.187 1.257.303 1.694.23.87.912 1.558 1.77 1.789l.226.053c.042.009.086.018.132.026l.301.05.349.049.394.046.439.045.48.042.797.058.88.053.96.047.68.029c1.132.043 2.33.074 3.541.095l2.037.025 1.448.002 1.468-.013c1.215-.016 2.43-.042 3.592-.079l1.54-.059.96-.047.88-.053.797-.058.48-.042.439-.045.394-.046.35-.049.3-.05c.139-.026.259-.052.359-.08a2.525 2.525 0 0 0 1.77-1.79c.132-.497.245-1.176.338-1.992l.065-.637.03-.337c.065-.77.11-1.587.142-2.416l.027-.89.015-.927-.002-.554-.02-1.005a55.532 55.532 0 0 0-.162-3.039l-.03-.336-.065-.637a26.013 26.013 0 0 0-.036-.3l-.077-.558a12.227 12.227 0 0 0-.177-.94l-.048-.195a2.525 2.525 0 0 0-1.771-1.79l-.107-.026-.251-.053a8.273 8.273 0 0 0-.145-.025l-.325-.05-.372-.047-.64-.067-.482-.042-1.08-.077-.908-.051-1.328-.06a167.19 167.19 0 0 0-3.541-.095l-1.302-.018-1.358-.01zm-3.096 5.087 8.471 4.706L25.177 33v-9.412z" fill="#52535A" fill-rule="nonzero"/>
    </g>
</svg>
