<svg width="84" height="84" viewBox="0 0 84 84" xmlns="http://www.w3.org/2000/svg">
    <path d="m41.6 16.302.105.083 14 11.812a1.75 1.75 0 0 1 .107 2.576l-.107.1-13.193 11.13 13.193 11.132a1.75 1.75 0 0 1 .107 2.576l-.107.099-14 11.812c-1.104.931-2.774.199-2.874-1.204l-.005-.133V45.37L21.67 60.495l-.133.103a1.708 1.708 0 0 1-2.19-.191l-.099-.11-.027-.031a1.75 1.75 0 0 1 .076-2.335l.107-.103 17.853-15.74-17.853-15.739a1.75 1.75 0 0 1-.183-2.437l.027-.033a1.708 1.708 0 0 1 2.29-.3l.132.103 17.154 15.123.001-21.083c0-1.444 1.637-2.248 2.774-1.42zm.726 30.123v16.094l9.537-8.047-9.537-8.047zm21.111 1.044a1.75 1.75 0 1 1 0 3.5 1.75 1.75 0 0 1 0-3.5zm0-14.263c.967 0 1.75.784 1.75 1.75v8.75a1.75 1.75 0 0 1-3.5 0v-8.75c0-.966.784-1.75 1.75-1.75zm-21.11-11.719v16.094l9.536-8.046-9.537-8.048z" fill="#CDCED3" fill-rule="evenodd"/>
</svg>
