<svg xmlns="http://www.w3.org/2000/svg" width="42" height="42" viewBox="0 0 42 42">
    <g fill="none" fill-rule="evenodd">
        <g fill="#02B6B6">
            <g>
                <g>
                    <g transform="translate(-40.000000, -696.000000) translate(16.000000, 588.000000) translate(24.000000, 64.000000) translate(0.000000, 44.000000)">
                        <circle cx="21" cy="21" r="21" opacity=".08"/>
                        <g>
                            <path d="M15 2.647l.574.494c.374.32 9.132 7.918 9.132 14.535 0 5.352-4.355 9.706-9.706 9.706-5.351 0-9.706-4.354-9.706-9.706 0-6.617 8.758-14.215 9.132-14.535L15 2.647zM15 5c-1.913 1.777-7.941 7.767-7.941 12.677 0 4.38 3.562 7.941 7.941 7.941 4.38 0 7.941-3.562 7.941-7.94 0-4.917-6.027-10.901-7.941-12.678zm0 17.06l.11.007c.435.054.771.426.771.875l-.006.111c-.055.435-.425.772-.876.772l-.11-.007c-.435-.055-.771-.425-.771-.876 0-.487.395-.882.881-.882zm5.632-5.554c.487.034.853.456.818.941-.149 2.104-1.288 4.062-3.047 5.237-.151.1-.321.15-.49.15-.285 0-.565-.138-.734-.393-.272-.405-.162-.953.243-1.223 1.31-.876 2.158-2.332 2.269-3.894.034-.486.466-.858.941-.818z" transform="translate(6.000000, 6.000000)"/>
                        </g>
                    </g>
                </g>
            </g>
        </g>
    </g>
</svg>
