<svg width="24" height="24" viewBox="0 0 24 24" xmlns="http://www.w3.org/2000/svg">
    <g fill="#8E8E93" fill-rule="evenodd">
        <path d="M6.706 16.604a.448.448 0 0 1-.44-.536 4.485 4.485 0 0 1 2.874-3.324 3.811 3.811 0 0 1-.948-2.51v-.672c0-2.1 1.708-3.808 3.808-3.808 2.1 0 3.808 1.709 3.808 3.808v.672c0 .916-.334 1.794-.92 2.478 1.711.508 2.825 1.81 2.854 3.436a.448.448 0 0 1-.44.456.463.463 0 0 1-.456-.44c-.026-1.45-1.187-2.528-2.957-2.747a.448.448 0 0 1-.205-.81 2.918 2.918 0 0 0 1.228-2.373v-.672A2.915 2.915 0 0 0 12 6.65a2.915 2.915 0 0 0-2.912 2.912v.672c0 .939.459 1.826 1.228 2.373a.45.45 0 0 1-.193.808 3.586 3.586 0 0 0-2.978 2.829.448.448 0 0 1-.439.36"/>
        <path d="M12 3.488c-4.694 0-8.512 3.818-8.512 8.512 0 4.773 3.739 8.512 8.512 8.512 4.853 0 8.512-3.66 8.512-8.512 0-4.773-3.739-8.512-8.512-8.512m0 17.92c-5.276 0-9.408-4.132-9.408-9.408 0-5.188 4.22-9.408 9.408-9.408 5.276 0 9.408 4.132 9.408 9.408 0 5.363-4.045 9.408-9.408 9.408"/>
    </g>
</svg>
