<svg width="24" height="24" viewBox="0 0 24 24" xmlns="http://www.w3.org/2000/svg">
    <g fill="none" fill-rule="evenodd">
        <path d="M0 0h24v24H0z"/>
        <g fill="#000" fill-rule="nonzero">
            <path d="m7.957 10.78 2.13-3.66h2.031l-3.061 5.023 3.13 5.107h-2.052l-2.178-3.716-2.184 3.716H3.727l3.138-5.107-3.068-5.024h2.031zM20.03 17.25h-6.812v-1.162l3.374-3.68c.487-.543.834-.997 1.04-1.361.207-.364.31-.73.31-1.096 0-.482-.136-.872-.407-1.169-.271-.297-.637-.445-1.096-.445-.547 0-.972.167-1.273.5-.302.335-.452.792-.452 1.371h-1.691c0-.616.14-1.172.42-1.666.281-.494.683-.878 1.205-1.151.521-.274 1.123-.411 1.805-.411.984 0 1.76.247 2.328.741.568.494.852 1.177.852 2.05 0 .505-.143 1.035-.428 1.589-.285.554-.753 1.184-1.402 1.89l-2.477 2.65h4.704v1.35z"/>
        </g>
    </g>
</svg>
