<svg xmlns="http://www.w3.org/2000/svg" width="26" height="26" viewBox="0 0 26 26">
    <g fill="none" fill-rule="evenodd">
        <g fill="#FFF">
            <g>
                <g>
                    <path d="M18.043 6.677c2.157 1.504 3.444 3.969 3.444 6.594 0 4.43-3.604 8.035-8.035 8.035s-8.035-3.604-8.035-8.035c0-2.622 1.285-5.085 3.436-6.59.493-.341 1.167-.222 1.508.269.343.49.224 1.165-.267 1.508-1.572 1.098-2.51 2.897-2.51 4.813 0 3.236 2.632 5.868 5.868 5.868s5.868-2.632 5.868-5.868c0-1.918-.94-3.718-2.516-4.818-.491-.342-.611-1.017-.27-1.508.342-.492 1.017-.613 1.509-.268zm-4.591-2.344l.116.007c.493.057.877.478.877.987v6.951l-.007.116c-.057.494-.477.877-.986.877l-.116-.007c-.494-.057-.878-.476-.878-.986V5.327c0-.548.446-.994.994-.994z" transform="translate(-147.000000, -2043.000000) translate(16.000000, 2027.000000) translate(131.000000, 16.000000)"/>
                </g>
            </g>
        </g>
    </g>
</svg>
