<svg width="96" height="96" viewBox="0 0 96 96" xmlns="http://www.w3.org/2000/svg">
    <g fill="none" fill-rule="evenodd">
        <circle fill="#1796E2" cx="48" cy="48" r="48"/>
        <path d="M48.136 55a5 5 0 1 1 0 10 5 5 0 0 1 0-10zm0 3a2 2 0 1 0 0 4 2 2 0 0 0 0-4zm0-12c5.727 0 10.951 2.942 13.955 7.692a1.5 1.5 0 0 1-2.535 1.603A13.487 13.487 0 0 0 48.136 49c-4.686 0-8.959 2.406-11.419 6.295a1.5 1.5 0 1 1-2.535-1.603A16.486 16.486 0 0 1 48.136 46zm0-8c7.827 0 15.041 3.697 19.638 9.847a1.5 1.5 0 1 1-2.404 1.796A21.462 21.462 0 0 0 48.136 41a21.462 21.462 0 0 0-17.234 8.643 1.5 1.5 0 1 1-2.403-1.796A24.461 24.461 0 0 1 48.136 38zm0-8c9.954 0 19.171 4.505 25.303 12.102a1.5 1.5 0 1 1-2.334 1.884C65.536 37.087 57.173 33 48.136 33s-17.4 4.087-22.969 10.987a1.5 1.5 0 1 1-2.334-1.884C28.965 34.505 38.183 30 48.136 30z" fill="#FFF"/>
    </g>
</svg>
