<svg width="34" height="34" viewBox="0 0 34 34" xmlns="http://www.w3.org/2000/svg">
    <g fill="none" fill-rule="evenodd">
        <circle fill="#F5F7F9" cx="17" cy="17" r="17"/>
        <path d="M13.473 9.114c.231 0 .442.09.604.237a.885.885 0 0 1 .533-.234l.07-.003h1.588c.228 0 .436.087.597.23a.888.888 0 0 1 .527-.227l.069-.003h1.588c.227 0 .435.086.596.23a.873.873 0 0 1 .52-.227l.07-.003h1.742c.365 0 .694.225.849.572l.013-.005 3.569 8.315.037.096c.044.131.066.268.066.407v2.982h.004l-.029 1.677a1.274 1.274 0 0 1-1.193 1.253l-.08.003H8.734c-.676 0-1.229-.528-1.27-1.194l-.003-.081v-1.655l.014-2.798v-.123h.001l.001-.077c0-.128.02-.255.06-.377l.031-.09 3.369-8.42.01.004c.12-.272.37-.46.658-.486l.069-.003h1.8zM8.127 20.449l-.006 1.037v1.653c0 .318.242.58.55.61l.063.004h16.48a.613.613 0 0 0 .608-.543l.004-.062.024-1.662v-1.035a.8.8 0 0 1-.072.01l-.07.002H8.278a.805.805 0 0 1-.15-.014zm3.392-2.455H8.698c-.29 0-.527.22-.556.502l-.003.057-.002-.001-.002.367v.742c0 .067.047.123.11.137l.032.004h17.432a.142.142 0 0 0 .138-.109l.002-.025v-1.14l-.005-.07a.557.557 0 0 0-.49-.46l-.058-.004H22.49a.557.557 0 0 0-.553.502v.012l.001.045h-.66c0-.29-.22-.527-.502-.556l-.057-.003h-2.822c-.29 0-.527.22-.556.502l-.002.057h-.662c0-.29-.22-.527-.501-.556l-.057-.003h-2.822c-.289 0-.527.22-.555.502l-.003.057h-.661c0-.29-.22-.527-.502-.556l-.057-.003zm1.954-8.18h-1.8a.14.14 0 0 0-.126.082l-.01.032-.019-.005-2.968 7.419.07-.007.078-.002h2.821c.351 0 .668.148.89.386.205-.22.491-.364.811-.384l.077-.002h2.822c.351 0 .667.148.89.386.204-.22.49-.364.81-.384l.078-.002h2.822c.35 0 .666.148.889.385.203-.22.488-.363.805-.383l.077-.002h2.806l.11.005-3.148-7.334-.015.007a.29.29 0 0 0-.222-.194l-.044-.003h-1.743a.27.27 0 0 0-.26.236l.002.045h-.66a.277.277 0 0 0-.223-.277l-.044-.004h-1.588a.27.27 0 0 0-.263.236l-.003.045h-.661a.277.277 0 0 0-.223-.277l-.043-.004H14.68a.27.27 0 0 0-.262.236l-.003.045h-.675a.277.277 0 0 0-.223-.277l-.043-.004zm3.766 5.348v.643h-.675v-.643h.675zm-4.431 0v.643h-.675v-.643h.675zm8.862 0v.643h-.675v-.643h.675zm-4.431-2.031v.643h-.675v-.643h.675zm-3.63 0v.643h-.675v-.643h.675zm7.26 0v.643h-.675v-.643h.675zm-3.63-1.867v.643h-.675v-.643h.675zm-2.863 0v.643H13.7v-.643h.675zm5.726 0v.643h-.674v-.643h.674z" fill="#6D6D72" fill-rule="nonzero"/>
    </g>
</svg>
