<svg width="24" height="24" viewBox="0 0 24 24" xmlns="http://www.w3.org/2000/svg">
    <g fill="#000" fill-rule="evenodd">
        <path d="M18.734 20H5.532a.5.5 0 0 1-.498-.504.5.5 0 0 1 .498-.503h13.202a.5.5 0 0 1 .497.503.5.5 0 0 1-.497.504M12.17 5.007c-.797 0-1.446.657-1.446 1.464 0 .78.605 1.418 1.377 1.456a.52.52 0 0 1 .084.011.47.47 0 0 1 .092-.015 1.459 1.459 0 0 0 1.34-1.452c0-.807-.65-1.464-1.447-1.464zM3.941 6.892c-.797 0-1.446.657-1.446 1.464 0 .807.649 1.464 1.446 1.464.258 0 .507-.072.74-.215l.1-.06c.037-.03.056-.05.087-.077.33-.282.52-.688.52-1.112 0-.807-.649-1.464-1.447-1.464zm15.422 2.765c.055.021.096.03.145.051.177.074.362.112.55.112.798 0 1.447-.657 1.447-1.464 0-.807-.649-1.464-1.446-1.464-.798 0-1.446.657-1.446 1.464 0 .482.235.934.63 1.208.044.03.08.062.12.093zM5.981 16.982h12.241l-.293-1.099a.515.515 0 0 1-.01-.213l.822-5.055c-2.692 1-5.348-.138-6.555-1.535-1.507 1.577-4.709 1.875-6.68 1.39l.769 5.131c.01.065.007.131-.009.195l-.285 1.186zm12.891 1.008H5.348a.497.497 0 0 1-.392-.193.509.509 0 0 1-.092-.43l.412-1.713-.734-4.906c-.197.052-.399.08-.6.08-1.347 0-2.442-1.11-2.442-2.472 0-1.363 1.095-2.471 2.441-2.471 1.347 0 2.442 1.108 2.442 2.47 0 .428-.111.842-.317 1.208 1.552.284 3.802.058 5.049-.868A2.464 2.464 0 0 1 9.729 6.47C9.729 5.108 10.824 4 12.17 4c1.346 0 2.441 1.108 2.441 2.471 0 .97-.569 1.824-1.396 2.224.955.86 2.812 1.69 4.85 1.086a2.488 2.488 0 0 1-.447-1.425c0-1.363 1.095-2.471 2.44-2.471 1.347 0 2.442 1.108 2.442 2.47 0 1.364-1.095 2.472-2.441 2.472-.114 0-.228-.008-.34-.024l-.801 4.923.434 1.629a.51.51 0 0 1-.085.437.496.496 0 0 1-.395.198z"/>
    </g>
</svg>
