<svg xmlns="http://www.w3.org/2000/svg" width="32" height="32" viewBox="0 0 32 32">
    <g fill="none" fill-rule="evenodd">
        <g fill="#231815">
            <g>
                <g>
                    <g>
                        <path d="M16 3.2c6.454 0 11.81 4.67 12.672 10.948l.046.016c.947.342 1.704 1.031 2.129 1.94.424.906.467 1.922.124 2.858-.533 1.453-1.931 2.423-3.455 2.462-2.131 4.366-6.595 7.16-11.515 7.16-4.923 0-9.385-2.794-11.517-7.16-1.523-.04-2.921-1.008-3.454-2.462-.345-.936-.3-1.952.123-2.857.424-.91 1.182-1.599 2.13-1.942l.045-.015c.843-6.139 5.985-10.74 12.246-10.941V3.2l.11.003c.105-.003.21-.004.317-.004zm-.312 1.524l-.278.012C9.836 5.016 5.316 9.258 4.783 14.82l-.054.571-.566.104c-.12.023-.241.055-.36.098-.565.204-1.016.614-1.269 1.155-.25.536-.277 1.138-.073 1.693.356.972 1.362 1.576 2.4 1.445l.569-.074.229.523c1.789 4.087 5.848 6.727 10.342 6.727 4.492 0 8.552-2.64 10.341-6.726l.229-.523.567.073c1.043.137 2.044-.473 2.401-1.445.204-.556.178-1.157-.073-1.694-.252-.54-.702-.95-1.268-1.153-.12-.044-.238-.076-.358-.098l-.568-.1-.055-.575c-.47-4.918-4.057-8.803-8.734-9.832.219.434.342.923.342 1.44 0 1.78-1.459 3.228-3.25 3.228-.787 0-1.545-.283-2.137-.795l1-1.147c.314.272.718.422 1.136.422.952 0 1.726-.766 1.726-1.708 0-.904-.713-1.646-1.612-1.705zM20.8 18.897l1.218.913-.46.607c-1.327 1.761-3.355 2.772-5.563 2.772-2.198 0-4.222-1.004-5.55-2.753l-.461-.607 1.215-.918.46.606c1.038 1.368 2.618 2.152 4.336 2.152 1.725 0 3.31-.79 4.347-2.165l.458-.607zm-9.336-5.337l.127.006c.623.064 1.11.59 1.11 1.228l-.006.127c-.064.622-.591 1.108-1.23 1.108l-.127-.007c-.624-.063-1.111-.589-1.111-1.228 0-.681.554-1.234 1.237-1.234zm9.075 0l.127.006c.623.064 1.11.59 1.11 1.228l-.006.127c-.064.622-.59 1.108-1.23 1.108l-.127-.007c-.626-.063-1.112-.589-1.112-1.228 0-.681.553-1.234 1.238-1.234z" transform="translate(-82.000000, -325.000000) translate(16.000000, 138.000000) translate(24.000000, 187.000000) translate(42.000000, -0.000000)"/>
                    </g>
                </g>
            </g>
        </g>
    </g>
</svg>
