<svg xmlns="http://www.w3.org/2000/svg" width="30" height="36" viewBox="0 0 30 36">
    <g fill="none" fill-rule="evenodd">
        <g fill="#FFF">
            <g>
                <g>
                    <path d="M17.088.944l9.381 4.105c1.7.744 2.768 2.457 2.685 4.31l-.407 9.16c-.222 4.988-2.868 9.552-7.086 12.224L17.07 33.65c-1.307.828-2.974.828-4.28 0l-4.593-2.908C3.98 28.07 1.333 23.507 1.112 18.518L.704 9.36C.622 7.506 1.69 5.793 3.39 5.049L12.771.944c1.376-.602 2.94-.602 4.317 0zM14.04 3.337l-.19.074-9.382 4.105c-.634.278-1.048.893-1.074 1.577v.147l.408 9.159c.177 3.991 2.239 7.653 5.541 9.876l.295.193 4.592 2.908c.384.243.864.268 1.267.073l.132-.073 4.592-2.908c3.375-2.138 5.528-5.747 5.815-9.718l.021-.351.407-9.159c.03-.692-.339-1.335-.941-1.66l-.133-.064L16.01 3.41c-.626-.273-1.33-.298-1.97-.074z" transform="translate(-40 -154) translate(16 138) translate(24 16)"/>
                    <path fill-rule="nonzero" d="M15 9c.552 0 1 .448 1 1v6.5c0 .552-.448 1-1 1s-1-.448-1-1v-1.232c-.599.346-1 .994-1 1.732 0 1.105.895 2 2 2s2-.895 2-2c0-.185-.025-.365-.073-.538l-.056-.17c-.195-.517.065-1.094.581-1.29.517-.195 1.094.065 1.29.582.17.449.258.927.258 1.416 0 2.21-1.79 4-4 4s-4-1.79-4-4c0-1.858 1.27-3.429 3-3.874v-2.043c-2.838.476-5 2.944-5 5.917 0 3.314 2.686 6 6 6s6-2.686 6-6c0-1.808-.803-3.483-2.15-4.603l-.312-.243-.136-.101c-.449-.322-.552-.947-.23-1.396.322-.448.947-.551 1.396-.23l.223.168.32.25C21.926 12.355 23 14.59 23 17c0 4.418-3.582 8-8 8s-8-3.582-8-8 3.582-8 8-8z" transform="translate(-40 -154) translate(16 138) translate(24 16)"/>
                </g>
            </g>
        </g>
    </g>
</svg>
