<svg width="24" height="24" viewBox="0 0 24 24" xmlns="http://www.w3.org/2000/svg" xmlns:xlink="http://www.w3.org/1999/xlink">
    <defs>
        <path id="mjozcwso3a" d="M0 2h24v22H0z"/>
    </defs>
    <g fill="none" fill-rule="evenodd">
        <mask id="ndhq8qr82b" fill="#fff">
            <use xlink:href="#mjozcwso3a"/>
        </mask>
        <path d="M11.47-1.505c-.106 8.067-.344 12.475-.712 13.225-.552 1.124-2.959 6.205-4.467 6.671-1.508.466-2.476.397-2.596 1.033-.119.635 0 .974 1.248.974h4.405c1.044 0 2.136-.612 3.279-1.836 1.713-1.835 4.224-1.349 5.486-2.745 1.261-1.397.35-2.821-.556-3.958-.906-1.138-1.137-2.32-1.19-2.741-.051-.422-.399-2.158 1.42-4.63C18.997 2.84 19.43.81 19.08-1.602" stroke="#000" stroke-width="1.5" stroke-linecap="round" mask="url(#ndhq8qr82b)"/>
        <path d="M13.258 12.51c.229-.769.694-1.153 1.395-1.153" stroke="#000" stroke-width="1.5" stroke-linecap="round" mask="url(#ndhq8qr82b)"/>
    </g>
</svg>
