<svg width="11" height="11" viewBox="0 0 11 11" xmlns="http://www.w3.org/2000/svg">
    <path d="M10.425 5.81c.226.024.39.227.366.453a5.226 5.226 0 0 1-9.114 2.9v1.012c0 .205-.15.375-.346.407l-.066.005a.413.413 0 0 1-.408-.345l-.005-.067V8.112c0-.205.15-.375.346-.407l.067-.005h2.062a.412.412 0 0 1 .067.82l-.067.005h-1.11A4.4 4.4 0 0 0 9.97 6.176a.413.413 0 0 1 .454-.366zM5.405.069c1.524 0 2.939.658 3.918 1.769V.825c0-.205.15-.375.346-.407l.066-.006c.205 0 .376.15.408.346l.005.067v2.063c0 .205-.15.375-.346.407l-.067.005H7.673a.412.412 0 0 1-.067-.82l.067-.005h1.11A4.4 4.4 0 0 0 1.03 4.824a.413.413 0 1 1-.82-.087A5.226 5.226 0 0 1 5.404.069z" fill="#52535A" fill-rule="evenodd"/>
</svg>
