<svg xmlns="http://www.w3.org/2000/svg" width="17" height="16" viewBox="0 0 17 16">
    <g fill="none" fill-rule="evenodd">
        <g fill="#52535A">
            <g>
                <g>
                    <g>
                        <g>
                            <path d="M10.871 7.852c.26.26.26.683 0 .943l-5.656 5.657c-.26.26-.683.26-.943 0-.26-.26-.26-.683 0-.943l5.185-5.185-5.185-5.186c-.26-.26-.26-.682 0-.943.26-.26.682-.26.943 0l5.656 5.657z" transform="translate(-288.000000, -1029.000000) translate(16.000000, 569.000000) translate(24.000000, 384.000000) translate(256.000000, 84.000000) scale(-1, 1) translate(-256.000000, -84.000000) translate(232.000000, 66.000000) translate(23.143146, 18.000000) scale(-1, 1) translate(-23.143146, -18.000000) translate(15.143146, 10.000000)"/>
                        </g>
                    </g>
                </g>
            </g>
        </g>
    </g>
</svg>
