<svg xmlns="http://www.w3.org/2000/svg" width="24" height="24" viewBox="0 0 24 24">
    <g fill="none" fill-rule="evenodd">
        <g fill="#000">
            <g>
                <g>
                    <g>
                        <path d="M16 3c1.105 0 2 .895 2 2v14c0 1.105-.895 2-2 2H8c-1.105 0-2-.895-2-2V5c0-1.105.895-2 2-2h8zm1 15H7v1c0 .513.386.936.883.993L8 20h8c.513 0 .936-.386.993-.883L17 19v-1zm-4.5.5c.276 0 .5.224.5.5s-.224.5-.5.5h-1c-.276 0-.5-.224-.5-.5s.224-.5.5-.5h1zM17 7H7v10h10V7zm-1-3H8c-.513 0-.936.386-.993.883L7 5v1h10V5c0-.513-.386-.936-.883-.993L16 4z" transform="translate(-32.000000, -592.000000) translate(0.000000, 456.000000) translate(32.000000, 128.000000) translate(0.000000, 8.000000)"/>
                    </g>
                </g>
            </g>
        </g>
    </g>
</svg>
