<svg width="16" height="16" viewBox="0 0 16 16" xmlns="http://www.w3.org/2000/svg">
    <g fill="#000" fill-rule="evenodd">
        <path d="M9.817 11.835h1.21V6.587h-1.21zM4.972 11.835h1.211V6.587H4.972z"/>
        <path d="M12.239 4.165v9.083c0 .111-.091.202-.202.202H3.962a.202.202 0 0 1-.201-.202V4.165h8.478zM6.99 2.953H9.01V2.55H6.99v.403zm7.065 0H10.22V1.944a.606.606 0 0 0-.606-.605h-3.23a.606.606 0 0 0-.605.605v1.01H1.944a.606.606 0 0 0 0 1.21h.605v9.488c0 .556.453 1.01 1.01 1.01h8.881a1.01 1.01 0 0 0 1.01-1.01V4.165h.605a.606.606 0 0 0 0-1.212z"/>
        <path d="M7.394 11.835h1.211V5.78h-1.21z"/>
    </g>
</svg>
