<svg xmlns="http://www.w3.org/2000/svg" width="32" height="32" viewBox="0 0 32 32">
    <g fill="none" fill-rule="evenodd">
        <g fill="#231815">
            <g>
                <g>
                    <g>
                        <path d="M22.359 4.8c-2.74 0-5.13 1.654-6.359 4.087C14.77 6.454 12.38 4.8 9.64 4.8c-3.992 0-7.24 3.51-7.24 7.825h1.727c0-3.362 2.474-6.098 5.513-6.098 2.923 0 5.315 2.53 5.497 5.712-.007.129-.019.256-.019.386 0 .143.004.287.01.411l.008 13.476h1.727V13.316l.007-.263c.008-.141.011-.285.011-.428 0-.13-.012-.257-.018-.386.182-3.183 2.575-5.712 5.496-5.712 3.04 0 5.514 2.736 5.514 6.098H29.6c0-4.314-3.248-7.825-7.241-7.825" transform="translate(-82.000000, -226.000000) translate(16.000000, 138.000000) translate(24.000000, 88.000000) translate(42.000000, 0.000000)"/>
                    </g>
                </g>
            </g>
        </g>
    </g>
</svg>
