<svg xmlns="http://www.w3.org/2000/svg" width="32" height="32" viewBox="0 0 32 32">
    <g fill="none" fill-rule="evenodd">
        <g fill="#1796E2">
            <g>
                <g>
                    <g>
                        <path d="M17.817 16.616l-.183-.193c-.096-.105-.193-.208-.294-.309-.095-.095-.197-.18-.295-.269-1.007-1.127-1.604-2.514-1.681-3.953-.083-1.53.43-2.931 1.445-3.945 2.119-2.12 5.794-1.892 8.192.505l1.2-1.2c-3.06-3.06-7.813-3.286-10.593-.506-1.36 1.36-2.048 3.22-1.94 5.238.039.714.18 1.416.408 2.093-2.582-.87-5.42-.378-7.33 1.531-2.78 2.781-2.554 7.533.506 10.594L8.452 25c-2.398-2.398-2.624-6.073-.505-8.192 1.014-1.014 2.405-1.542 3.946-1.445 1.435.077 2.82.671 3.945 1.675.092.1.18.204.276.3.1.101.205.2.3.287l9.585 9.574L27.2 26l-9.383-9.384z" transform="translate(-246.000000, -226.000000) translate(16.000000, 138.000000) translate(172.000000, 76.000000) translate(58.000000, 12.000000)"/>
                    </g>
                </g>
            </g>
        </g>
    </g>
</svg>
