<svg xmlns="http://www.w3.org/2000/svg" width="96" height="96" viewBox="0 0 96 96">
    <g fill="none" fill-rule="evenodd">
        <g>
            <g>
                <g transform="translate(-132 -264) translate(24 192) translate(108 72)">
                    <circle cx="48" cy="48" r="48" fill="#F5F7F9"/>
                    <path fill="#1796E2" d="M27 29c.552 0 1 .448 1 1s-.448 1-1 1-1-.448-1-1 .448-1 1-1zm3 0c.552 0 1 .448 1 1s-.448 1-1 1-1-.448-1-1 .448-1 1-1zm-3-3c.552 0 1 .448 1 1s-.448 1-1 1-1-.448-1-1 .448-1 1-1zm3 0c.552 0 1 .448 1 1s-.448 1-1 1-1-.448-1-1 .448-1 1-1z" transform="rotate(45 28.5 28.5)"/>
                    <path fill="#1796E2" d="M39 35c.552 0 1 .448 1 1s-.448 1-1 1-1-.448-1-1 .448-1 1-1zm3 0c.552 0 1 .448 1 1s-.448 1-1 1-1-.448-1-1 .448-1 1-1zm-3-3c.552 0 1 .448 1 1s-.448 1-1 1-1-.448-1-1 .448-1 1-1zm3 0c.552 0 1 .448 1 1s-.448 1-1 1-1-.448-1-1 .448-1 1-1z" transform="rotate(45 40.5 34.5)"/>
                    <path fill="#1796E2" d="M24 42c.552 0 1 .448 1 1s-.448 1-1 1-1-.448-1-1 .448-1 1-1zm3 0c.552 0 1 .448 1 1s-.448 1-1 1-1-.448-1-1 .448-1 1-1zm-3-3c.552 0 1 .448 1 1s-.448 1-1 1-1-.448-1-1 .448-1 1-1zm3 0c.552 0 1 .448 1 1s-.448 1-1 1-1-.448-1-1 .448-1 1-1z" transform="rotate(45 25.5 41.5)"/>
                    <path stroke="#1796E2" stroke-linecap="round" stroke-linejoin="round" stroke-width="2" d="M54.803 74.63l-6.234-8.553H39.6c-6.731.62-11.078-3.454-13.04-12.218L55.678 40.71V27.448c6.977 2.294 10.465 6.715 10.465 13.263 3.957 4.86 7.43 9.242 10.421 13.148"/>
                    <rect width="2" height="4" x="51" y="48" fill="#1796E2" rx="1"/>
                </g>
            </g>
        </g>
    </g>
</svg>
