<svg xmlns="http://www.w3.org/2000/svg" width="24" height="24" viewBox="0 0 24 24">
    <g fill="none" fill-rule="evenodd">
        <g fill="#FFF">
            <g>
                <g>
                    <path d="M16.655 6.163c1.991 1.389 3.179 3.664 3.179 6.087 0 4.09-3.327 7.417-7.417 7.417S5 16.34 5 12.25c0-2.42 1.186-4.694 3.172-6.083.455-.315 1.077-.205 1.392.248.317.452.207 1.076-.246 1.392C7.866 8.821 7 10.482 7 12.25c0 2.987 2.43 5.417 5.417 5.417 2.987 0 5.417-2.43 5.417-5.417 0-1.77-.868-3.432-2.323-4.447-.453-.316-.564-.939-.248-1.392.315-.454.938-.566 1.392-.248zM12.417 4l.107.006c.456.053.81.441.81.911v6.417l-.006.107c-.053.455-.441.809-.911.809l-.107-.006c-.456-.053-.81-.44-.81-.91V4.917c0-.506.411-.917.917-.917z" transform="translate(-272 -155) translate(260 146) translate(12 9)"/>
                </g>
            </g>
        </g>
    </g>
</svg>
