<svg width="108" height="108" viewBox="0 0 108 108" xmlns="http://www.w3.org/2000/svg">
    <g fill="none" fill-rule="evenodd">
        <circle stroke="#CDCED3" fill="#FFF" cx="54" cy="54" r="53.5"/>
        <path d="m77.932 31.502.153.001c.568.043 1.005.5 1.038 1.054l-.001.153-3.297 43.415c0 5.473-4.342 9.932-9.77 10.119l-.355.006H42.3c-5.473 0-9.932-4.342-10.116-9.69l-.006-.35-3.3-43.5a1.125 1.125 0 0 1 2.222-.322l.022.152 2.313 30.535h41.127l2.316-30.535c.043-.568.501-1.005 1.054-1.038zm-3.541 33.823H33.606l.82 10.8a7.875 7.875 0 0 0 7.55 7.868L42.3 84h23.4c4.24 0 7.698-3.352 7.871-7.63l.007-.33.813-10.715zM54.866 22.907c7.163 8.63 10.76 14.949 10.76 19.168C65.625 48.495 60.42 53.7 54 53.7c-6.42 0-11.625-5.205-11.625-11.625 0-4.22 3.596-10.537 10.76-19.168a1.125 1.125 0 0 1 1.73 0zm-.37 3.103L54 25.396l-.495.614c-5.928 7.381-8.88 12.794-8.88 16.065a9.375 9.375 0 1 0 18.75 0c0-3.271-2.952-8.684-8.88-16.065zM49.28 43.403c.714 2.11 2.334 3.293 5.055 3.617a1.125 1.125 0 0 1-.266 2.234c-3.542-.421-5.913-2.153-6.92-5.13a1.125 1.125 0 1 1 2.13-.721z" fill="#8E8E93"/>
    </g>
</svg>
