<svg xmlns="http://www.w3.org/2000/svg" width="24" height="24" viewBox="0 0 24 24">
    <g fill="none" fill-rule="evenodd">
        <g fill="#FFF" fill-rule="nonzero">
            <g>
                <g>
                    <path d="M13.511 3.92c.414.247.76.593 1.008 1.007l6.562 10.937c.835 1.39.384 3.195-1.008 4.03-.456.274-.979.419-1.511.419H5.438c-1.623 0-2.938-1.316-2.938-2.938 0-.532.145-1.055.419-1.511L9.48 4.927c.834-1.392 2.639-1.843 4.03-1.008zM10.82 5.564l-.079.117L4.178 16.62c-.137.229-.21.49-.21.756 0 .763.583 1.39 1.328 1.462l.142.007h13.124c.266 0 .527-.073.756-.21.654-.392.893-1.215.57-1.89l-.067-.125L13.26 5.682c-.124-.206-.297-.38-.504-.503-.654-.393-1.492-.217-1.936.386zm1.18 9.362c.406 0 .735.329.735.734 0 .406-.329.735-.734.735-.406 0-.735-.329-.735-.735 0-.405.33-.734.735-.734zm0-5.875c.406 0 .735.328.735.734v3.427c0 .406-.329.735-.734.735-.406 0-.735-.33-.735-.735V9.786c0-.406.33-.734.735-.734z" transform="translate(-40.000000, -158.000000) translate(16.000000, 138.000000) translate(24.000000, 20.000000)"/>
                </g>
            </g>
        </g>
    </g>
</svg>
