<svg width="108" height="108" viewBox="0 0 108 108" xmlns="http://www.w3.org/2000/svg">
    <g fill="none" fill-rule="evenodd">
        <circle stroke="#CDCED3" fill="#FFF" cx="54" cy="54" r="53.5"/>
        <path d="M63 22.5c5.592 0 10.125 4.533 10.125 10.125a1.125 1.125 0 0 1-2.25 0 7.875 7.875 0 0 0-15.746-.245l-.004.245v10.5h24a4.125 4.125 0 0 1 4.12 3.92l.005.205v2.25c0 2.04-1.48 3.733-3.424 4.066l-.202.03-.124.01v1.29c0 9.533-5.36 18.087-13.626 22.344l-.383.194-.204.097.521 4.68a2.626 2.626 0 0 1-1.942 2.828l-.164.038-.213.032-.145.012-.145.004H45.551a2.625 2.625 0 0 1-2.625-2.625l.004-.145.012-.145.519-4.68-.202-.096a25.126 25.126 0 0 1-13.99-21.566l-.013-.436-.006-.537v-1.29l-.124-.01a4.127 4.127 0 0 1-3.601-3.639l-.017-.205-.008-.251v-2.25a4.125 4.125 0 0 1 3.92-4.12l.205-.005h23.25v-10.5a7.875 7.875 0 0 0-15.75 0 1.125 1.125 0 0 1-2.25 0C34.875 27.033 39.408 22.5 45 22.5c3.919 0 7.318 2.226 9 5.483a10.121 10.121 0 0 1 9-5.483zm16.125 22.875h-49.5c-.986 0-1.795.761-1.87 1.728l-.005.147v2.25c0 .986.761 1.795 1.728 1.87l.147.005h42a1.125 1.125 0 0 1 .153 2.24l-.153.01H31.5v1.27c0 9 5.245 17.04 13.248 20.757l.377.171c.411.182.67.59.67 1.032l-.007.121-.612 5.503.01.107a.375.375 0 0 0 .29.282l.075.007h17.648l.042-.002a.375.375 0 0 0 .332-.338l-.001-.076-.61-5.483a1.125 1.125 0 0 1 .663-1.153 22.878 22.878 0 0 0 13.621-20.507l.004-.42V52.5c0-.58.439-1.057 1.002-1.118l.123-.007h.75c.986 0 1.795-.761 1.87-1.728L81 49.5v-2.25c0-1.036-.84-1.875-1.875-1.875z" fill="#8E8E93" fill-rule="nonzero"/>
    </g>
</svg>
