<svg width="30" height="36" viewBox="0 0 30 36" xmlns="http://www.w3.org/2000/svg">
    <path d="m17.088.942 9.381 4.104a4.488 4.488 0 0 1 2.685 4.31l-.407 9.16a15.272 15.272 0 0 1-7.086 12.224l-4.591 2.908a4 4 0 0 1-4.28 0L8.196 30.74a15.272 15.272 0 0 1-7.085-12.224l-.408-9.16a4.488 4.488 0 0 1 2.685-4.31L12.771.942a5.386 5.386 0 0 1 4.317 0zM14.04 3.334l-.19.075-9.382 4.104A1.795 1.795 0 0 0 3.394 9.09v.147l.408 9.16a12.58 12.58 0 0 0 5.541 9.876l.295.192 4.592 2.908c.384.244.864.268 1.267.073l.132-.073 4.592-2.908a12.58 12.58 0 0 0 5.815-9.718l.021-.35.407-9.16a1.795 1.795 0 0 0-.941-1.66l-.133-.064-9.381-4.104a2.693 2.693 0 0 0-1.97-.075zm6.397 6.528c.365.211.49.678.28 1.043l-1.033 1.788a.763.763 0 0 1-1.321-.763l1.032-1.788a.763.763 0 0 1 1.042-.28zm-11.13 0a.763.763 0 0 1 .984.194l.058.086 1.032 1.788a.763.763 0 0 1-1.263.849l-.058-.086-1.032-1.788a.763.763 0 0 1 .279-1.043zm12.382 5.985c.217 0 .407.074.56.22a.742.742 0 0 1 .234.556c0 .114-.022.272-.068.48l-.038.164-1.132 4.579-.023.091-.022.087-.082.297-.07.218c-.06.168-.16.315-.301.44-.152.135-.36.2-.617.2-.243 0-.446-.063-.601-.192a1.056 1.056 0 0 1-.257-.303l-.052-.114-.058-.168-.071-.229-.084-.292-.956-3.545-.968 3.546-.082.284-.07.226-.058.169c-.06.16-.165.3-.31.423-.157.131-.36.195-.603.195a.977.977 0 0 1-.495-.115.88.88 0 0 1-.32-.323 1.672 1.672 0 0 1-.132-.285l-.051-.164-.081-.305-1.206-4.877a2.321 2.321 0 0 1-.068-.487c0-.216.078-.403.23-.552a.782.782 0 0 1 .564-.224c.302 0 .522.105.638.32.076.14.142.326.2.557l.042.182.757 3.376.884-3.292c.029-.105.056-.199.083-.282l.04-.118.037-.1c.069-.173.18-.323.333-.447.162-.132.376-.196.637-.196.266 0 .481.068.64.207.146.128.25.271.308.429l.044.129.025.078.086.289.896 3.306.823-3.662.031-.117.031-.101a.931.931 0 0 1 .237-.376c.125-.123.3-.182.516-.182zm-9.208.116c.254 0 .452.06.59.185a.643.643 0 0 1 .21.494c0 .202-.07.371-.21.498-.11.1-.26.159-.444.178l-.146.007H9.527v1.37h2.708c.147 0 .275.021.383.064l.101.05.088.067a.63.63 0 0 1 .204.484c0 .195-.067.36-.2.487a.72.72 0 0 1-.433.18l-.143.007H9.527v1.634h3.06c.161 0 .3.026.417.078l.083.044.091.069c.142.13.214.304.214.512a.656.656 0 0 1-.214.502.762.762 0 0 1-.446.183l-.144.007H8.844c-.336 0-.59-.078-.754-.244-.14-.141-.216-.347-.235-.612l-.005-.138v-5.112c0-.218.033-.4.102-.548a.697.697 0 0 1 .35-.347c.11-.05.24-.08.388-.093l.154-.006h3.637zm2.391-7.239c.421 0 .763.342.763.763v2.065a.763.763 0 1 1-1.526 0V9.487c0-.421.342-.763.763-.763z" fill="#FFF" fill-rule="evenodd"/>
</svg>
