<svg xmlns="http://www.w3.org/2000/svg" xmlns:xlink="http://www.w3.org/1999/xlink" width="125" height="54" viewBox="0 0 125 54">
    <defs>
        <path id="n2f7dd0u1a" d="M0.027 0.306L77.954 0.306 77.954 53.484 0.027 53.484z"/>
    </defs>
    <g fill="none" fill-rule="evenodd">
        <g>
            <g>
                <g>
                    <g transform="translate(-118 -140) translate(16 108) translate(102 32)">
                        <mask id="6m4knvpugb" fill="#fff">
                            <use xlink:href="#n2f7dd0u1a"/>
                        </mask>
                        <path fill="#40BEE2" d="M59.894 31.332v-3.095c0-1.1-.674-2.08-1.696-2.515-3.824-1.624-6.501-5.421-6.501-9.805 0-5.843 4.755-10.645 10.645-10.645s10.646 4.802 10.646 10.645c0 6.894-5.333 13.413-13.094 15.415zM62.342.306c-8.637 0-15.611 7.042-15.611 15.611s6.974 15.61 15.611 15.61 15.612-7.041 15.612-15.61c0-8.569-6.975-15.611-15.612-15.611z" mask="url(#6m4knvpugb)"/>
                        <path fill="#202931" d="M4.387 47.883c-2.057 0-3.086.794-3.086 2.38 0 1.383.728 2.074 2.183 2.074.558 0 1.16-.11 1.808-.331.647-.22 1.3-.544 1.962-.97V48.28c-1-.265-1.955-.397-2.867-.397zm.31-6.063c2.542 0 3.814 1.095 3.814 3.285v7.805c0 .22-.11.33-.33.33h-.464c-.22 0-.338-.11-.353-.33l-.088-.948c-1.264 1.014-2.587 1.522-3.968 1.522-1.015 0-1.82-.291-2.415-.872C.298 52.032 0 51.256 0 50.286c0-1.072.364-1.918 1.092-2.536.727-.617 1.73-.925 3.01-.925.47 0 .984.044 1.542.132.559.088 1.095.213 1.61.375V45.48c0-.897-.213-1.54-.64-1.93-.426-.389-1.131-.584-2.116-.584-.911 0-1.874.147-2.888.441-.162.044-.29.084-.386.121-.096.037-.173.055-.232.055-.176 0-.264-.095-.264-.286v-.353c0-.22.095-.367.287-.44.558-.221 1.157-.39 1.796-.508.64-.118 1.268-.176 1.885-.176z" mask="url(#6m4knvpugb)"/>
                    </g>
                    <path fill="#202931" d="M24.21 41.82c1.013 0 1.785.283 2.314.849.53.565.794 1.4.794 2.502v7.739c0 .22-.11.33-.33.33h-.597c-.22 0-.33-.11-.33-.33V45.7c0-.97-.165-1.668-.496-2.094-.331-.427-.87-.64-1.62-.64-1.412 0-2.742.463-3.991 1.39.044.352.066.698.066 1.035v7.519c0 .22-.11.33-.33.33h-.596c-.22 0-.331-.11-.331-.33V45.7c0-.97-.165-1.668-.496-2.094-.33-.427-.87-.64-1.62-.64-1.368 0-2.676.448-3.925 1.345v8.599c0 .22-.11.33-.331.33h-.595c-.22 0-.33-.11-.33-.33V42.48c0-.22.11-.33.33-.33h.441c.22 0 .345.11.374.33l.09.883c.66-.485 1.351-.863 2.071-1.135.72-.272 1.434-.408 2.139-.408 1.382 0 2.307.566 2.778 1.697.706-.558 1.444-.98 2.216-1.267.772-.287 1.54-.43 2.304-.43M33.954 47.883c-2.058 0-3.087.794-3.087 2.38 0 1.383.728 2.074 2.183 2.074.559 0 1.161-.11 1.808-.331.647-.22 1.3-.544 1.963-.97V48.28c-1-.265-1.956-.397-2.867-.397zm.309-6.063c2.543 0 3.814 1.095 3.814 3.285v7.805c0 .22-.11.33-.33.33h-.463c-.22 0-.339-.11-.353-.33l-.088-.948c-1.265 1.014-2.588 1.522-3.969 1.522-1.015 0-1.82-.291-2.414-.872-.596-.58-.894-1.356-.894-2.326 0-1.072.364-1.918 1.092-2.536.728-.617 1.731-.925 3.01-.925.47 0 .984.044 1.543.132.558.088 1.095.213 1.61.375V45.48c0-.897-.214-1.54-.64-1.93-.426-.389-1.132-.584-2.117-.584-.91 0-1.874.147-2.888.441-.162.044-.29.084-.386.121-.096.037-.173.055-.23.055-.178 0-.266-.095-.266-.286v-.353c0-.22.095-.367.287-.44.558-.221 1.158-.39 1.797-.508.64-.118 1.267-.176 1.885-.176zM48.616 52.469v.44c0 .221-.11.331-.33.331h-7.761c-.221 0-.331-.11-.331-.33v-.463c0-.147.018-.264.055-.353.036-.088.106-.19.21-.308l6.702-8.533h-6.416c-.22 0-.331-.11-.331-.33v-.442c0-.22.11-.33.331-.33h7.496c.221 0 .331.11.331.33v.463c0 .118-.019.228-.055.331-.037.103-.114.22-.232.352l-6.724 8.511h6.724c.221 0 .331.11.331.33M55.098 52.425c2.543 0 3.815-1.58 3.815-4.74 0-3.146-1.272-4.719-3.815-4.719s-3.814 1.573-3.814 4.719c0 3.16 1.271 4.74 3.814 4.74zm0 1.146c-1.602 0-2.855-.51-3.76-1.532-.903-1.022-1.355-2.473-1.355-4.354 0-1.882.452-3.33 1.356-4.344.904-1.015 2.157-1.521 3.759-1.521 1.602 0 2.855.506 3.76 1.521.903 1.014 1.356 2.462 1.356 4.344 0 1.881-.453 3.332-1.356 4.354-.905 1.022-2.158 1.532-3.76 1.532zM68.46 41.82c1.087 0 1.91.283 2.469.849.558.565.837 1.4.837 2.502v7.739c0 .22-.11.33-.33.33h-.595c-.221 0-.33-.11-.33-.33V45.7c0-.97-.185-1.668-.553-2.094-.367-.427-.955-.64-1.763-.64-.78 0-1.521.122-2.228.364-.705.242-1.396.592-2.071 1.047v8.533c0 .22-.11.33-.331.33h-.596c-.22 0-.33-.11-.33-.33V42.48c0-.22.11-.33.33-.33h.441c.221 0 .346.11.375.33l.089.95c.705-.515 1.455-.912 2.248-1.191.794-.28 1.573-.42 2.338-.42M83.739 47.883c-2.058 0-3.087.794-3.087 2.38 0 1.383.728 2.074 2.183 2.074.558 0 1.16-.11 1.807-.331.647-.22 1.302-.544 1.963-.97V48.28c-1-.265-1.955-.397-2.866-.397zm.308-6.063c2.543 0 3.815 1.095 3.815 3.285v7.805c0 .22-.11.33-.33.33h-.464c-.22 0-.338-.11-.352-.33l-.089-.948c-1.264 1.014-2.587 1.522-3.969 1.522-1.014 0-1.818-.291-2.413-.872-.596-.58-.894-1.356-.894-2.326 0-1.072.364-1.918 1.091-2.536.728-.617 1.732-.925 3.01-.925.47 0 .985.044 1.544.132.558.088 1.094.213 1.609.375V45.48c0-.897-.213-1.54-.64-1.93-.426-.389-1.131-.584-2.116-.584-.911 0-1.874.147-2.888.441-.162.044-.29.084-.386.121-.096.037-.173.055-.231.055-.177 0-.265-.095-.265-.286v-.353c0-.22.095-.367.286-.44.559-.221 1.158-.39 1.797-.508.64-.118 1.268-.176 1.885-.176zM90.772 37.255c0-.22.11-.33.331-.33h.595c.22 0 .33.11.33.33v14.068c0 .323.063.55.189.683.124.132.348.199.672.199.088 0 .187-.008.297-.022.11-.015.202-.023.276-.023.206 0 .31.104.31.309v.419c0 .177-.097.286-.288.33-.088.03-.217.052-.386.067-.169.014-.32.022-.451.022-.588 0-1.048-.173-1.38-.519-.33-.344-.495-.826-.495-1.443v-14.09M99.979 42.944c-1.102 0-1.973.323-2.612.97-.64.647-1.025 1.595-1.158 2.844.574.148 1.143.258 1.709.331.566.074 1.135.11 1.708.11 1.103 0 1.912-.161 2.426-.485.514-.323.771-.838.771-1.543 0-1.485-.948-2.227-2.844-2.227zm2.8 9.106c.192-.059.331-.106.42-.144.088-.036.169-.054.242-.054.177 0 .265.095.265.286v.309c0 .236-.081.39-.243.463-1.059.44-2.183.661-3.373.661-1.69 0-2.98-.488-3.87-1.466-.89-.977-1.334-2.407-1.334-4.288 0-.926.118-1.76.353-2.502.235-.743.576-1.375 1.025-1.897.448-.521.996-.918 1.643-1.19.647-.272 1.374-.408 2.183-.408 1.279 0 2.267.294 2.965.881.698.589 1.047 1.412 1.047 2.47 0 1.044-.37 1.811-1.113 2.304-.742.492-1.892.739-3.451.739-.558 0-1.12-.033-1.686-.1-.566-.065-1.129-.179-1.688-.341 0 1.587.335 2.76 1.004 3.516.669.758 1.672 1.136 3.01 1.136.867 0 1.734-.125 2.602-.375zM110.162 48.346l-3.197 4.652c-.118.162-.272.242-.463.242h-.617c-.192 0-.287-.08-.287-.242 0-.058.05-.155.154-.286l3.77-5.248-3.44-4.806c-.087-.133-.131-.22-.131-.265 0-.162.095-.242.286-.242h.684c.191 0 .345.08.463.242l2.888 4.101 2.888-4.101c.117-.162.265-.242.441-.242h.595c.191 0 .287.08.287.242 0 .059-.044.154-.132.286l-3.395 4.697 3.77 5.336c.088.131.132.228.132.286 0 .162-.096.242-.287.242h-.683c-.176 0-.324-.08-.441-.242l-3.285-4.652M120.562 47.883c-2.058 0-3.087.794-3.087 2.38 0 1.383.728 2.074 2.183 2.074.559 0 1.161-.11 1.808-.331.647-.22 1.3-.544 1.962-.97V48.28c-.999-.265-1.955-.397-2.866-.397zm.308-6.063c2.543 0 3.815 1.095 3.815 3.285v7.805c0 .22-.11.33-.33.33h-.464c-.22 0-.338-.11-.352-.33l-.088-.948c-1.265 1.014-2.588 1.522-3.97 1.522-1.014 0-1.818-.291-2.413-.872-.596-.58-.894-1.356-.894-2.326 0-1.072.364-1.918 1.092-2.536.727-.617 1.73-.925 3.01-.925.47 0 .984.044 1.543.132.558.088 1.094.213 1.61.375V45.48c0-.897-.214-1.54-.64-1.93-.427-.389-1.132-.584-2.117-.584-.911 0-1.874.147-2.888.441-.162.044-.29.084-.386.121-.096.037-.173.055-.231.055-.177 0-.265-.095-.265-.286v-.353c0-.22.095-.367.287-.44.558-.221 1.158-.39 1.796-.508.64-.118 1.268-.176 1.885-.176z" transform="translate(-118 -140) translate(16 108) translate(102 32)"/>
                </g>
            </g>
        </g>
    </g>
</svg>
