<svg xmlns="http://www.w3.org/2000/svg" xmlns:xlink="http://www.w3.org/1999/xlink" width="150" height="22" viewBox="0 0 150 22">
    <defs>
        <path id="927v4nzx4a" d="M0.027 0.418L20.817 0.418 20.817 21.208 0.027 21.208z"/>
    </defs>
    <g fill="none" fill-rule="evenodd">
        <g>
            <g>
                <g>
                    <g>
                        <g transform="translate(-24 -396) translate(0 130) translate(0 248) translate(24 18)">
                            <mask id="corkm7m2gb" fill="#fff">
                                <use xlink:href="#927v4nzx4a"/>
                            </mask>
                            <path fill="#40BEE2" d="M8.776 21.104V19.04c0-.734-.45-1.388-1.13-1.677-2.55-1.083-4.335-3.615-4.335-6.537 0-3.896 3.17-7.098 7.097-7.098 3.927 0 7.098 3.202 7.098 7.098 0 4.596-3.556 8.942-8.73 10.277zM10.408.418C4.65.418 0 5.114 0 10.827c0 5.713 4.65 10.408 10.408 10.408 5.759 0 10.409-4.695 10.409-10.408 0-5.713-4.65-10.409-10.409-10.409z" mask="url(#corkm7m2gb)"/>
                        </g>
                        <path fill="#202931" d="M31.807 12.26c-2.02 0-3.03.779-3.03 2.337 0 1.356.714 2.034 2.142 2.034.548 0 1.14-.108 1.775-.324.635-.217 1.277-.534 1.927-.953V12.65c-.982-.26-1.92-.39-2.814-.39zm.303-5.952c2.496 0 3.744 1.075 3.744 3.225v7.66c0 .217-.108.325-.325.325h-.454c-.217 0-.332-.108-.346-.324l-.087-.93c-1.24.995-2.54 1.492-3.895 1.492-.996 0-1.786-.284-2.37-.854-.585-.57-.877-1.33-.877-2.284 0-1.052.358-1.882 1.071-2.488.715-.606 1.7-.909 2.955-.909.462 0 .966.043 1.515.13.548.086 1.075.209 1.58.368V9.9c0-.88-.21-1.512-.628-1.894-.42-.382-1.111-.573-2.078-.573-.894 0-1.84.144-2.835.432-.159.044-.285.084-.378.12-.095.036-.17.053-.228.053-.173 0-.26-.093-.26-.28v-.347c0-.217.094-.36.282-.433.548-.216 1.136-.382 1.763-.497.628-.116 1.245-.174 1.85-.174zM51.263 6.308c.995 0 1.753.278 2.272.833.52.556.78 1.374.78 2.457v7.596c0 .216-.11.324-.325.324h-.585c-.216 0-.324-.108-.324-.324v-7.077c0-.952-.163-1.637-.487-2.056-.325-.418-.855-.627-1.59-.627-1.386 0-2.692.454-3.918 1.363.043.347.065.686.065 1.017v7.38c0 .216-.108.324-.325.324h-.584c-.216 0-.325-.108-.325-.324v-7.077c0-.952-.162-1.637-.486-2.056-.325-.418-.856-.627-1.591-.627-1.343 0-2.626.44-3.852 1.32v8.44c0 .216-.109.324-.325.324h-.584c-.217 0-.325-.108-.325-.324V6.958c0-.217.108-.325.325-.325h.432c.216 0 .34.108.368.325l.087.865c.649-.476 1.327-.847 2.034-1.115.707-.266 1.407-.4 2.1-.4 1.355 0 2.264.556 2.726 1.667.693-.548 1.418-.963 2.175-1.244.758-.282 1.512-.423 2.262-.423M60.828 12.26c-2.02 0-3.03.779-3.03 2.337 0 1.356.714 2.034 2.142 2.034.548 0 1.14-.108 1.776-.324.634-.217 1.276-.534 1.926-.953V12.65c-.982-.26-1.92-.39-2.814-.39zm.303-5.952c2.496 0 3.744 1.075 3.744 3.225v7.66c0 .217-.108.325-.325.325h-.454c-.217 0-.332-.108-.346-.324l-.087-.93c-1.241.995-2.54 1.492-3.896 1.492-.995 0-1.785-.284-2.369-.854-.585-.57-.877-1.33-.877-2.284 0-1.052.357-1.882 1.072-2.488.714-.606 1.699-.909 2.954-.909.461 0 .966.043 1.515.13.548.086 1.074.209 1.58.368V9.9c0-.88-.21-1.512-.628-1.894-.42-.382-1.111-.573-2.078-.573-.894 0-1.84.144-2.835.432-.159.044-.285.084-.378.12-.095.036-.17.053-.227.053-.174 0-.26-.093-.26-.28v-.347c0-.217.093-.36.281-.433.548-.216 1.136-.382 1.763-.497.628-.116 1.245-.174 1.85-.174zM75.22 16.76v.434c0 .216-.109.324-.325.324h-7.618c-.217 0-.325-.108-.325-.324v-.455c0-.144.018-.26.055-.346.035-.086.104-.187.205-.303l6.58-8.375h-6.299c-.216 0-.325-.108-.325-.324v-.433c0-.217.11-.325.325-.325h7.358c.217 0 .325.108.325.325v.454c0 .116-.018.224-.054.325-.036.1-.112.216-.227.345l-6.6 8.355h6.6c.216 0 .325.108.325.324M81.582 16.718c2.496 0 3.744-1.551 3.744-4.653 0-3.088-1.248-4.631-3.744-4.631-2.496 0-3.744 1.543-3.744 4.631 0 3.102 1.248 4.653 3.744 4.653zm0 1.125c-1.573 0-2.803-.501-3.69-1.504-.887-1.003-1.331-2.427-1.331-4.274s.444-3.268 1.331-4.263c.887-.996 2.117-1.494 3.69-1.494 1.572 0 2.802.498 3.69 1.494.887.995 1.33 2.416 1.33 4.263s-.443 3.271-1.33 4.274c-.888 1.003-2.118 1.504-3.69 1.504zM94.697 6.308c1.067 0 1.875.278 2.423.833.549.556.823 1.374.823 2.457v7.596c0 .216-.109.324-.325.324h-.584c-.217 0-.325-.108-.325-.324v-7.077c0-.952-.18-1.637-.54-2.056-.361-.418-.939-.627-1.732-.627-.765 0-1.493.119-2.186.357-.692.238-1.37.58-2.034 1.027v8.376c0 .216-.109.324-.325.324h-.584c-.217 0-.325-.108-.325-.324V6.958c0-.217.108-.325.325-.325h.433c.216 0 .339.108.367.325l.087.93c.692-.505 1.428-.894 2.208-1.169.779-.274 1.543-.41 2.294-.41M109.694 12.26c-2.02 0-3.03.779-3.03 2.337 0 1.356.714 2.034 2.142 2.034.549 0 1.14-.108 1.775-.324.635-.217 1.277-.534 1.926-.953V12.65c-.98-.26-1.919-.39-2.813-.39zm.303-5.952c2.496 0 3.744 1.075 3.744 3.225v7.66c0 .217-.108.325-.325.325h-.454c-.217 0-.332-.108-.346-.324l-.087-.93c-1.241.995-2.54 1.492-3.896 1.492-.995 0-1.785-.284-2.37-.854-.584-.57-.876-1.33-.876-2.284 0-1.052.358-1.882 1.071-2.488.715-.606 1.7-.909 2.955-.909.461 0 .966.043 1.514.13.548.086 1.075.209 1.58.368V9.9c0-.88-.209-1.512-.627-1.894-.42-.382-1.111-.573-2.078-.573-.894 0-1.84.144-2.835.432-.159.044-.285.084-.378.12-.095.036-.17.053-.228.053-.173 0-.26-.093-.26-.28v-.347c0-.217.094-.36.282-.433.548-.216 1.136-.382 1.763-.497.628-.116 1.245-.174 1.851-.174zM116.597 1.828c0-.216.108-.324.325-.324h.584c.216 0 .325.108.325.324v13.808c0 .317.06.54.184.67.122.13.343.195.66.195.087 0 .184-.006.292-.021.109-.015.199-.022.27-.022.202 0 .304.101.304.303v.41c0 .174-.094.283-.282.326-.086.029-.213.05-.378.065-.166.014-.314.021-.444.021-.577 0-1.028-.169-1.353-.508-.324-.339-.487-.812-.487-1.418V1.828M125.815 7.412c-1.082 0-1.938.318-2.565.952-.628.635-1.006 1.565-1.136 2.792.563.145 1.122.253 1.677.324.555.073 1.115.109 1.677.109 1.082 0 1.876-.159 2.381-.476.505-.318.757-.823.757-1.515 0-1.457-.93-2.186-2.791-2.186zm2.748 8.938c.188-.058.325-.104.411-.141.087-.036.166-.054.238-.054.173 0 .26.094.26.282v.302c0 .231-.08.383-.238.455-1.04.432-2.142.65-3.311.65-1.66 0-2.926-.48-3.798-1.44-.873-.96-1.31-2.362-1.31-4.21 0-.908.116-1.727.347-2.455.23-.729.566-1.35 1.006-1.862.44-.512.977-.901 1.612-1.169.635-.266 1.35-.4 2.143-.4 1.255 0 2.225.29 2.91.866.686.577 1.029 1.385 1.029 2.424 0 1.024-.365 1.778-1.093 2.261-.73.483-1.858.725-3.387.725-.549 0-1.1-.032-1.655-.097-.556-.065-1.108-.177-1.657-.336 0 1.558.329 2.709.985 3.452.657.743 1.642 1.115 2.954 1.115.852 0 1.703-.123 2.554-.368zM135.71 12.714l-3.137 4.566c-.116.16-.267.238-.455.238h-.606c-.187 0-.281-.079-.281-.238 0-.057.05-.151.151-.28l3.701-5.152-3.376-4.718c-.087-.13-.13-.216-.13-.259 0-.159.094-.238.282-.238h.67c.188 0 .34.08.455.238l2.835 4.025 2.835-4.025c.115-.159.26-.238.433-.238h.584c.188 0 .282.08.282.238 0 .058-.044.151-.13.281l-3.333 4.61 3.7 5.237c.087.13.13.224.13.281 0 .16-.093.238-.281.238h-.67c-.174 0-.319-.079-.433-.238l-3.225-4.566M145.735 12.26c-2.02 0-3.03.779-3.03 2.337 0 1.356.714 2.034 2.143 2.034.548 0 1.14-.108 1.774-.324.636-.217 1.277-.534 1.927-.953V12.65c-.982-.26-1.92-.39-2.814-.39zm.303-5.952c2.496 0 3.744 1.075 3.744 3.225v7.66c0 .217-.108.325-.324.325h-.455c-.217 0-.332-.108-.346-.324l-.087-.93c-1.24.995-2.54 1.492-3.895 1.492-.996 0-1.786-.284-2.37-.854-.584-.57-.877-1.33-.877-2.284 0-1.052.358-1.882 1.072-2.488.714-.606 1.699-.909 2.954-.909.462 0 .966.043 1.515.13.548.086 1.075.209 1.58.368V9.9c0-.88-.21-1.512-.628-1.894-.419-.382-1.111-.573-2.078-.573-.894 0-1.84.144-2.835.432-.158.044-.285.084-.378.12-.095.036-.17.053-.228.053-.173 0-.26-.093-.26-.28v-.347c0-.217.094-.36.282-.433.548-.216 1.136-.382 1.764-.497.628-.116 1.244-.174 1.85-.174z" transform="translate(-24 -396) translate(0 130) translate(0 248) translate(24 18)"/>
                    </g>
                </g>
            </g>
        </g>
    </g>
</svg>
