<svg xmlns="http://www.w3.org/2000/svg" width="79" height="20" viewBox="0 0 79 20">
    <g fill="none" fill-rule="evenodd">
        <g fill="#00A7E1">
            <g>
                <g>
                    <g>
                        <path d="M74.952 2.238C75.532.764 77.173.269 78.348.733c.682.266.928.744.253 2.458l-5.463 13.892c-.58 1.472-2.223 1.968-3.399 1.504-.68-.266-.927-.744-.251-2.46l1.694-4.3-4.592-8.533c-.866-1.608-.676-2.103-.029-2.444 1.115-.59 2.802-.288 3.546 1.096l2.867 5.325zM57.942.564c2.999 0 6.234 2.032 6.234 6.52v1.81c0 .93.442 2.231 1.064 3.162.177.25.323.678.203 1.121-.112.43-.462.777-1.007 1.014-.278.119-.539.179-.787.179-.45 0-.837-.197-1.184-.615-.213-.267-.432-.578-.688-1.021-.907.884-2.31 1.863-4.772 1.863-3.37 0-6.07-2.595-6.07-6.804 0-3.947 2.87-7.229 7.008-7.229zm-10.56 0c.846 0 1.614.462 1.451 1.206l-2.48 11.133c-.234 1.048-1.158 1.694-2.302 1.694-1.194 0-2.14-.686-2.4-1.694l-1.37-5.894-1.373 5.894c-.259 1.008-1.206 1.694-2.4 1.694-1.145 0-2.07-.646-2.303-1.694L31.727 1.77c-.167-.744.603-1.206 1.45-1.206 1.194 0 1.85.543 2.037 1.54l1.379 7.883c.009.045.075.048.085.003l1.788-7.53c.336-1.31.717-1.896 1.814-1.896 1.095 0 1.477.586 1.811 1.895l1.788 7.53c.011.046.077.043.085-.002l1.38-7.884c.189-.996.843-1.539 2.038-1.539zm-24.514 0c4.78 0 7.277 3.143 7.277 7.016 0 3.872-2.496 7.017-7.277 7.017-4.778 0-7.276-3.145-7.276-7.017 0-3.873 2.498-7.016 7.276-7.016zm-15.664 0c3.23 0 5.572 1.591 5.774 2.87.187 1.154-1.398 2.375-2.601 1.439-.97-.754-1.827-1.187-3.173-1.187-2.018 0-3.505 1.452-3.505 3.894 0 2.743 1.756 3.875 3.584 4.115 1.285.17 3.438-.108 4.774-1.35.35.203.778.834.649 1.52-.293 1.574-2.33 2.732-5.16 2.732C2.182 14.597 0 11.234 0 7.58 0 3.707 2.473.564 7.204.564zm15.664 3.123c-2.037 0-3.539 1.451-3.539 3.893 0 2.445 1.502 3.893 3.54 3.893 2.038 0 3.538-1.448 3.538-3.893 0-2.442-1.5-3.893-3.539-3.893zm35.206.003c-1.769-.146-3.144 1.403-3.456 3.608-.307 2.208.679 3.998 2.355 4.15 2.154.2 3.403-1.746 3.533-4.002.115-2.211-.7-3.666-2.432-3.756z" transform="translate(-24.000000, -305.000000) translate(0.000000, 88.000000) translate(0.000000, 191.000000) translate(24.000000, 26.000000)"/>
                    </g>
                </g>
            </g>
        </g>
    </g>
</svg>
