<svg width="64" height="16" viewBox="0 0 64 16" xmlns="http://www.w3.org/2000/svg">
    <path d="M53.923.71a2.132 2.132 0 0 1 2.872.913l2.323 4.44 1.602-4.197C61.19.637 62.52.225 63.472.611c.552.223.751.621.205 2.05l-4.426 11.585c-.47 1.228-1.8 1.641-2.753 1.255-.551-.222-.751-.62-.204-2.052l1.372-3.586-3.72-7.116C53.244 1.406 53.4.993 53.923.709zM46.94.47c2.429 0 5.05 1.695 5.05 5.438v1.51c0 .776.358 1.86.862 2.636.143.21.261.565.164.935-.091.358-.374.648-.815.845-.226.1-.437.15-.639.15-.364 0-.677-.164-.958-.513a6.554 6.554 0 0 1-.558-.852c-.735.738-1.87 1.554-3.866 1.554-2.73 0-4.918-2.164-4.918-5.674 0-3.291 2.326-6.028 5.678-6.028zm-8.556 0c.686 0 1.308.386 1.176 1.006l-2.009 9.285c-.19.874-.938 1.412-1.865 1.412-.967 0-1.734-.572-1.944-1.412l-1.111-4.916-1.112 4.916c-.209.84-.977 1.412-1.944 1.412-.928 0-1.677-.538-1.865-1.412l-2.008-9.285c-.135-.62.489-1.005 1.174-1.005.968 0 1.5.452 1.65 1.283l1.118 6.575c.007.038.06.04.069.002l1.448-6.28c.272-1.092.58-1.58 1.47-1.58.887 0 1.196.488 1.467 1.58l1.449 6.28c.009.038.062.036.069-.002l1.117-6.575c.153-.83.684-1.283 1.651-1.283zm-19.859 0c3.873 0 5.895 2.622 5.895 5.851 0 3.23-2.022 5.852-5.895 5.852-3.871 0-5.894-2.622-5.894-5.852 0-3.23 2.023-5.85 5.894-5.85zm-12.69 0c2.617 0 4.514 1.327 4.678 2.393.151.963-1.133 1.982-2.108 1.2-.786-.628-1.48-.989-2.57-.989-1.635 0-2.84 1.21-2.84 3.247 0 2.288 1.423 3.232 2.904 3.432 1.04.143 2.786-.09 3.867-1.125.284.168.63.695.526 1.268-.237 1.312-1.887 2.277-4.18 2.277C1.768 12.173 0 9.368 0 6.321 0 3.091 2.003.471 5.836.471zm12.69 2.604c-1.65 0-2.867 1.21-2.867 3.247 0 2.04 1.216 3.247 2.867 3.247 1.652 0 2.867-1.208 2.867-3.247 0-2.036-1.215-3.247-2.867-3.247zm28.521.003c-1.433-.121-2.547 1.17-2.8 3.01-.248 1.84.55 3.334 1.909 3.46 1.744.167 2.757-1.456 2.861-3.337.094-1.844-.566-3.058-1.97-3.133z" fill="#AAAAAF" fill-rule="evenodd"/>
</svg>
